999
"DXF R12 Output" (www.mydxf.blogspot.com)
 0 
SECTION
 2 
HEADER
 9 
$ACADVER
 1 
AC1009
 9 
$EXTMIN
 10 
 0 
 20 
 0 
 9 
$EXTMAX
 10 
 8.5 
 20 
 11 
 0 
ENDSEC
 0 
SECTION
 2 
ENTITIES
0
LINE
8
Layer 1
10
40.640000
20
35.458000
11
41.275430
21
33.059429
0
LINE
8
Layer 1
10
41.275430
20
33.059429
11
42.118261
21
30.837682
0
LINE
8
Layer 1
10
42.118261
20
30.837682
11
43.185269
21
28.787868
0
LINE
8
Layer 1
10
43.185269
20
28.787868
11
44.493230
21
26.905097
0
LINE
8
Layer 1
10
44.493230
20
26.905097
11
46.058923
21
25.184480
0
LINE
8
Layer 1
10
46.058923
20
25.184480
11
47.899124
21
23.621126
0
LINE
8
Layer 1
10
47.899124
20
23.621126
11
50.030610
21
22.210146
0
LINE
8
Layer 1
10
50.030610
20
22.210146
11
52.470157
21
20.946650
0
LINE
8
Layer 1
10
52.470157
20
20.946650
11
55.234544
21
19.825748
0
LINE
8
Layer 1
10
55.234544
20
19.825748
11
58.340546
21
18.842549
0
LINE
8
Layer 1
10
58.340546
20
18.842549
11
61.804941
21
17.992164
0
LINE
8
Layer 1
10
61.804941
20
17.992164
11
65.644506
21
17.269703
0
LINE
8
Layer 1
10
65.644506
20
17.269703
11
69.876017
21
16.670276
0
LINE
8
Layer 1
10
69.876017
20
16.670276
11
74.516252
21
16.188993
0
LINE
8
Layer 1
10
74.516252
20
16.188993
11
85.090000
21
15.561300
0
LINE
8
Layer 1
10
85.090000
20
15.561300
11
94.772141
21
15.063237
0
LINE
8
Layer 1
10
94.772141
20
15.063237
11
103.765261
21
14.456107
0
LINE
8
Layer 1
10
103.765261
20
14.456107
11
111.935328
21
13.989067
0
LINE
8
Layer 1
10
111.935328
20
13.989067
11
119.148313
21
13.911275
0
LINE
8
Layer 1
10
119.148313
20
13.911275
11
122.354014
21
14.096208
0
LINE
8
Layer 1
10
122.354014
20
14.096208
11
125.270183
21
14.471888
0
LINE
8
Layer 1
10
125.270183
20
14.471888
11
127.880065
21
15.069459
0
LINE
8
Layer 1
10
127.880065
20
15.069459
11
130.166908
21
15.920065
0
LINE
8
Layer 1
10
130.166908
20
15.920065
11
132.113956
21
17.054852
0
LINE
8
Layer 1
10
132.113956
20
17.054852
11
133.704457
21
18.504963
0
LINE
8
Layer 1
10
133.704457
20
18.504963
11
134.921656
21
20.301544
0
LINE
8
Layer 1
10
134.921656
20
20.301544
11
135.748800
21
22.475740
0
LINE
8
Layer 1
10
135.748800
20
22.475740
11
137.587276
21
30.952654
0
LINE
8
Layer 1
10
137.587276
20
30.952654
11
140.542955
21
47.090304
0
LINE
8
Layer 1
10
140.542955
20
47.090304
11
144.217928
21
68.649387
0
LINE
8
Layer 1
10
144.217928
20
68.649387
11
148.214288
21
93.390602
0
LINE
8
Layer 1
10
148.214288
20
93.390602
11
152.134123
21
119.074647
0
LINE
8
Layer 1
10
152.134123
20
119.074647
11
155.579527
21
143.462220
0
LINE
8
Layer 1
10
155.579527
20
143.462220
11
158.152588
21
164.314018
0
LINE
8
Layer 1
10
158.152588
20
164.314018
11
158.987645
21
172.714220
0
LINE
8
Layer 1
10
158.987645
20
172.714220
11
159.455400
21
179.390740
0
LINE
8
Layer 1
10
159.455400
20
179.390740
11
159.703785
21
185.173376
0
LINE
8
Layer 1
10
159.703785
20
185.173376
11
159.465066
21
191.230019
0
LINE
8
Layer 1
10
159.465066
20
191.230019
11
158.700959
21
197.470790
0
LINE
8
Layer 1
10
158.700959
20
197.470790
11
157.373180
21
203.805812
0
LINE
8
Layer 1
10
157.373180
20
203.805812
11
156.485949
21
206.980580
0
LINE
8
Layer 1
10
156.485949
20
206.980580
11
155.443442
21
210.145206
0
LINE
8
Layer 1
10
155.443442
20
210.145206
11
154.240876
21
213.288456
0
LINE
8
Layer 1
10
154.240876
20
213.288456
11
152.873463
21
216.399095
0
LINE
8
Layer 1
10
152.873463
20
216.399095
11
151.336418
21
219.465887
0
LINE
8
Layer 1
10
151.336418
20
219.465887
11
149.624956
21
222.477599
0
LINE
8
Layer 1
10
149.624956
20
222.477599
11
147.734291
21
225.422996
0
LINE
8
Layer 1
10
147.734291
20
225.422996
11
145.659638
21
228.290842
0
LINE
8
Layer 1
10
145.659638
20
228.290842
11
143.396210
21
231.069904
0
LINE
8
Layer 1
10
143.396210
20
231.069904
11
140.939223
21
233.748946
0
LINE
8
Layer 1
10
140.939223
20
233.748946
11
138.283890
21
236.316733
0
LINE
8
Layer 1
10
138.283890
20
236.316733
11
135.425426
21
238.762031
0
LINE
8
Layer 1
10
135.425426
20
238.762031
11
132.359046
21
241.073605
0
LINE
8
Layer 1
10
132.359046
20
241.073605
11
129.079964
21
243.240221
0
LINE
8
Layer 1
10
129.079964
20
243.240221
11
125.583395
21
245.250643
0
LINE
8
Layer 1
10
125.583395
20
245.250643
11
121.864552
21
247.093637
0
LINE
8
Layer 1
10
121.864552
20
247.093637
11
117.918650
21
248.757967
0
LINE
8
Layer 1
10
117.918650
20
248.757967
11
113.740903
21
250.232400
0
LINE
8
Layer 1
10
113.740903
20
250.232400
11
109.326527
21
251.505701
0
LINE
8
Layer 1
10
109.326527
20
251.505701
11
104.670735
21
252.566634
0
LINE
8
Layer 1
10
104.670735
20
252.566634
11
99.768742
21
253.403966
0
LINE
8
Layer 1
10
99.768742
20
253.403966
11
94.615762
21
254.006460
0
LINE
8
Layer 1
10
94.615762
20
254.006460
11
89.207010
21
254.362883
0
LINE
8
Layer 1
10
89.207010
20
254.362883
11
83.537700
21
254.462000
0
LINE
8
Layer 1
10
83.537700
20
254.462000
11
77.894908
21
254.263224
0
LINE
8
Layer 1
10
77.894908
20
254.263224
11
72.563676
21
253.744104
0
LINE
8
Layer 1
10
72.563676
20
253.744104
11
67.536222
21
252.920887
0
LINE
8
Layer 1
10
67.536222
20
252.920887
11
62.804767
21
251.809818
0
LINE
8
Layer 1
10
62.804767
20
251.809818
11
58.361528
21
250.427147
0
LINE
8
Layer 1
10
58.361528
20
250.427147
11
54.198726
21
248.789119
0
LINE
8
Layer 1
10
54.198726
20
248.789119
11
50.308580
21
246.911983
0
LINE
8
Layer 1
10
50.308580
20
246.911983
11
46.683308
21
244.811984
0
LINE
8
Layer 1
10
46.683308
20
244.811984
11
43.315130
21
242.505371
0
LINE
8
Layer 1
10
43.315130
20
242.505371
11
40.196264
21
240.008390
0
LINE
8
Layer 1
10
40.196264
20
240.008390
11
37.318931
21
237.337289
0
LINE
8
Layer 1
10
37.318931
20
237.337289
11
34.675348
21
234.508314
0
LINE
8
Layer 1
10
34.675348
20
234.508314
11
32.257736
21
231.537714
0
LINE
8
Layer 1
10
32.257736
20
231.537714
11
30.058313
21
228.441734
0
LINE
8
Layer 1
10
30.058313
20
228.441734
11
28.069299
21
225.236622
0
LINE
8
Layer 1
10
28.069299
20
225.236622
11
26.282913
21
221.938625
0
LINE
8
Layer 1
10
26.282913
20
221.938625
11
24.691373
21
218.563991
0
LINE
8
Layer 1
10
24.691373
20
218.563991
11
23.286899
21
215.128966
0
LINE
8
Layer 1
10
23.286899
20
215.128966
11
22.061710
21
211.649797
0
LINE
8
Layer 1
10
22.061710
20
211.649797
11
21.008025
21
208.142732
0
LINE
8
Layer 1
10
21.008025
20
208.142732
11
20.118064
21
204.624019
0
LINE
8
Layer 1
10
20.118064
20
204.624019
11
19.384045
21
201.109903
0
LINE
8
Layer 1
10
19.384045
20
201.109903
11
18.352711
21
194.160453
0
LINE
8
Layer 1
10
18.352711
20
194.160453
11
17.851776
21
187.424361
0
LINE
8
Layer 1
10
17.851776
20
187.424361
11
17.818994
21
181.031604
0
LINE
8
Layer 1
10
17.818994
20
181.031604
11
18.192118
21
175.112157
0
LINE
8
Layer 1
10
18.192118
20
175.112157
11
18.908900
21
169.796000
0
LINE
8
Layer 1
10
18.908900
20
169.796000
11
31.726891
21
88.845937
0
LINE
8
Layer 1
10
31.726891
20
88.845937
11
37.488206
21
53.505383
0
LINE
8
Layer 1
10
37.488206
20
53.505383
11
40.640000
21
35.458000
0
LINE
8
Layer 1
10
40.640000
20
35.458000
11
40.640000
21
35.458000
 0 
ENDSEC
 0 
EOF