solid OpenSCAD_Model
  facet normal 1 0 0
    outer loop
      vertex 40.5 -2 11.5
      vertex 40.5 -45 11.5
      vertex 40.5 -2 -7.5
    endloop
  endfacet
  facet normal 1 0 0
    outer loop
      vertex 40.5 2 -7.5
      vertex 40.5 45 11.5
      vertex 40.5 2 11.5
    endloop
  endfacet
  facet normal 1 0 0
    outer loop
      vertex 40.5 45 11.5
      vertex 40.5 2 -7.5
      vertex 40.5 45 -11.5
    endloop
  endfacet
  facet normal 1 -0 0
    outer loop
      vertex 40.5 -2 -7.5
      vertex 40.5 45 -11.5
      vertex 40.5 2 -7.5
    endloop
  endfacet
  facet normal 1 0 0
    outer loop
      vertex 40.5 -2 -7.5
      vertex 40.5 -45 -11.5
      vertex 40.5 45 -11.5
    endloop
  endfacet
  facet normal 1 0 0
    outer loop
      vertex 40.5 -45 -11.5
      vertex 40.5 -2 -7.5
      vertex 40.5 -45 11.5
    endloop
  endfacet
  facet normal 0 0 1
    outer loop
      vertex -36.5 -42 11.5
      vertex -34.5 -42 11.5
      vertex -34.6468 -41.0729 11.5
    endloop
  endfacet
  facet normal 0 0 1
    outer loop
      vertex -34.5 -42 11.5
      vertex -36.5 -42 11.5
      vertex -34.6468 -42.9271 11.5
    endloop
  endfacet
  facet normal 0 0 1
    outer loop
      vertex -36.5489 -41.691 11.5
      vertex -34.6468 -41.0729 11.5
      vertex -35.0729 -40.2366 11.5
    endloop
  endfacet
  facet normal 0 0 1
    outer loop
      vertex 34.5 -42 11.5
      vertex 36.5 -42 11.5
      vertex 34.6468 -41.0729 11.5
    endloop
  endfacet
  facet normal 0 -0 1
    outer loop
      vertex 34.6468 -42.9271 11.5
      vertex 36.5 -42 11.5
      vertex 34.5 -42 11.5
    endloop
  endfacet
  facet normal 0 0 1
    outer loop
      vertex 36.5 -42 11.5
      vertex 34.6468 -42.9271 11.5
      vertex 34.684 -43 11.5
    endloop
  endfacet
  facet normal 0 0 1
    outer loop
      vertex 40.5 45 11.5
      vertex 38.4511 41.691 11.5
      vertex 38.5 39.184 11.5
    endloop
  endfacet
  facet normal -0 0 1
    outer loop
      vertex 38.309 41.4122 11.5
      vertex 38.5 39.184 11.5
      vertex 38.4511 41.691 11.5
    endloop
  endfacet
  facet normal -0 0 1
    outer loop
      vertex 38.0878 41.191 11.5
      vertex 38.5 39.184 11.5
      vertex 38.309 41.4122 11.5
    endloop
  endfacet
  facet normal -0 0 1
    outer loop
      vertex 37.809 41.0489 11.5
      vertex 38.5 39.184 11.5
      vertex 38.0878 41.191 11.5
    endloop
  endfacet
  facet normal 0 0 1
    outer loop
      vertex 38.5 39.184 11.5
      vertex 37.809 41.0489 11.5
      vertex 38.4271 39.1468 11.5
    endloop
  endfacet
  facet normal -0 0 1
    outer loop
      vertex 37.5 41 11.5
      vertex 38.4271 39.1468 11.5
      vertex 37.809 41.0489 11.5
    endloop
  endfacet
  facet normal 0 0 1
    outer loop
      vertex 37.5 41 11.5
      vertex 37.5 39 11.5
      vertex 38.4271 39.1468 11.5
    endloop
  endfacet
  facet normal 0 0 1
    outer loop
      vertex 37.191 41.0489 11.5
      vertex 37.5 39 11.5
      vertex 37.5 41 11.5
    endloop
  endfacet
  facet normal 0 0 1
    outer loop
      vertex 36.5729 39.1468 11.5
      vertex 37.191 41.0489 11.5
      vertex 36.9122 41.191 11.5
    endloop
  endfacet
  facet normal 0 0 1
    outer loop
      vertex 35.7366 39.5729 11.5
      vertex 36.9122 41.191 11.5
      vertex 36.691 41.4122 11.5
    endloop
  endfacet
  facet normal 0 0 1
    outer loop
      vertex 37.191 41.0489 11.5
      vertex 36.5729 39.1468 11.5
      vertex 37.5 39 11.5
    endloop
  endfacet
  facet normal 0 0 1
    outer loop
      vertex 35.0729 40.2366 11.5
      vertex 36.691 41.4122 11.5
      vertex 36.5489 41.691 11.5
    endloop
  endfacet
  facet normal 0 0 1
    outer loop
      vertex 34.6468 41.0729 11.5
      vertex 36.5489 41.691 11.5
      vertex 36.5 42 11.5
    endloop
  endfacet
  facet normal 0 0 1
    outer loop
      vertex 36.9122 41.191 11.5
      vertex 35.7366 39.5729 11.5
      vertex 36.5729 39.1468 11.5
    endloop
  endfacet
  facet normal 0 0 1
    outer loop
      vertex 38.4511 41.691 11.5
      vertex 40.5 45 11.5
      vertex 38.5 42 11.5
    endloop
  endfacet
  facet normal 0 0 1
    outer loop
      vertex 40.5 45 11.5
      vertex 38.4511 42.309 11.5
      vertex 38.5 42 11.5
    endloop
  endfacet
  facet normal 0 0 1
    outer loop
      vertex 40.5 45 11.5
      vertex 38.309 42.5878 11.5
      vertex 38.4511 42.309 11.5
    endloop
  endfacet
  facet normal 0 0 1
    outer loop
      vertex 40.5 45 11.5
      vertex 38.0878 42.809 11.5
      vertex 38.309 42.5878 11.5
    endloop
  endfacet
  facet normal 0 0 1
    outer loop
      vertex 40.5 45 11.5
      vertex 37.809 42.9511 11.5
      vertex 38.0878 42.809 11.5
    endloop
  endfacet
  facet normal 0 0 1
    outer loop
      vertex 40.5 45 11.5
      vertex 37.5 43 11.5
      vertex 37.809 42.9511 11.5
    endloop
  endfacet
  facet normal 0 0 1
    outer loop
      vertex 40.5 45 11.5
      vertex 37.191 42.9511 11.5
      vertex 37.5 43 11.5
    endloop
  endfacet
  facet normal -0 0 1
    outer loop
      vertex 34.684 43 11.5
      vertex 37.191 42.9511 11.5
      vertex 40.5 45 11.5
    endloop
  endfacet
  facet normal 0 0 1
    outer loop
      vertex 34.5 42 11.5
      vertex 36.5 42 11.5
      vertex 36.5489 42.309 11.5
    endloop
  endfacet
  facet normal 0 0 1
    outer loop
      vertex 36.691 41.4122 11.5
      vertex 35.0729 40.2366 11.5
      vertex 35.7366 39.5729 11.5
    endloop
  endfacet
  facet normal 0 0 1
    outer loop
      vertex 34.684 43 11.5
      vertex 36.5489 42.309 11.5
      vertex 36.691 42.5878 11.5
    endloop
  endfacet
  facet normal 0 0 1
    outer loop
      vertex 36.5489 42.309 11.5
      vertex 34.684 43 11.5
      vertex 34.6468 42.9271 11.5
    endloop
  endfacet
  facet normal 0 0 1
    outer loop
      vertex 36.9122 42.809 11.5
      vertex 34.684 43 11.5
      vertex 36.691 42.5878 11.5
    endloop
  endfacet
  facet normal 0 0 1
    outer loop
      vertex 37.191 42.9511 11.5
      vertex 34.684 43 11.5
      vertex 36.9122 42.809 11.5
    endloop
  endfacet
  facet normal 0 0 1
    outer loop
      vertex 40.5 45 11.5
      vertex -34.684 43 11.5
      vertex 34.684 43 11.5
    endloop
  endfacet
  facet normal -0 0 1
    outer loop
      vertex -36.5489 41.691 11.5
      vertex -34.6468 41.0729 11.5
      vertex -36.5 42 11.5
    endloop
  endfacet
  facet normal 0 0 1
    outer loop
      vertex -34.6468 41.0729 11.5
      vertex -36.5489 41.691 11.5
      vertex -35.0729 40.2366 11.5
    endloop
  endfacet
  facet normal 0 0 1
    outer loop
      vertex -34.684 43 11.5
      vertex -36.5489 42.309 11.5
      vertex -36.5 42 11.5
    endloop
  endfacet
  facet normal 0 0 1
    outer loop
      vertex -34.684 43 11.5
      vertex -36.691 42.5878 11.5
      vertex -36.5489 42.309 11.5
    endloop
  endfacet
  facet normal 0 0 1
    outer loop
      vertex -34.684 43 11.5
      vertex -36.9122 42.809 11.5
      vertex -36.691 42.5878 11.5
    endloop
  endfacet
  facet normal 0 0 1
    outer loop
      vertex -34.684 43 11.5
      vertex -37.191 42.9511 11.5
      vertex -36.9122 42.809 11.5
    endloop
  endfacet
  facet normal -0 0 1
    outer loop
      vertex -40.5 45 11.5
      vertex -34.684 43 11.5
      vertex 40.5 45 11.5
    endloop
  endfacet
  facet normal 0 0 1
    outer loop
      vertex -34.684 43 11.5
      vertex -40.5 45 11.5
      vertex -37.191 42.9511 11.5
    endloop
  endfacet
  facet normal 0 0 1
    outer loop
      vertex -38.4511 41.691 11.5
      vertex -40.5 45 11.5
      vertex -38.5 39.184 11.5
    endloop
  endfacet
  facet normal 0 0 1
    outer loop
      vertex -38.5 39.184 11.5
      vertex -40.5 45 11.5
      vertex -38.5 -39.184 11.5
    endloop
  endfacet
  facet normal 0 0 1
    outer loop
      vertex -40.5 -45 11.5
      vertex -38.5 -39.184 11.5
      vertex -40.5 45 11.5
    endloop
  endfacet
  facet normal 0 0 1
    outer loop
      vertex -38.4511 42.309 11.5
      vertex -40.5 45 11.5
      vertex -38.5 42 11.5
    endloop
  endfacet
  facet normal 0 0 1
    outer loop
      vertex -38.309 42.5878 11.5
      vertex -40.5 45 11.5
      vertex -38.4511 42.309 11.5
    endloop
  endfacet
  facet normal 0 0 1
    outer loop
      vertex -38.0878 42.809 11.5
      vertex -40.5 45 11.5
      vertex -38.309 42.5878 11.5
    endloop
  endfacet
  facet normal 0 0 1
    outer loop
      vertex -37.809 42.9511 11.5
      vertex -40.5 45 11.5
      vertex -38.0878 42.809 11.5
    endloop
  endfacet
  facet normal 0 0 1
    outer loop
      vertex -37.5 43 11.5
      vertex -40.5 45 11.5
      vertex -37.809 42.9511 11.5
    endloop
  endfacet
  facet normal 0 0 1
    outer loop
      vertex -37.191 42.9511 11.5
      vertex -40.5 45 11.5
      vertex -37.5 43 11.5
    endloop
  endfacet
  facet normal 0 0 1
    outer loop
      vertex 40.5 45 11.5
      vertex 38.5 39.184 11.5
      vertex 40.5 2 11.5
    endloop
  endfacet
  facet normal 0 0 1
    outer loop
      vertex 40.5 2 11.5
      vertex 38.5 39.184 11.5
      vertex 38.5 2 11.5
    endloop
  endfacet
  facet normal 0 0 1
    outer loop
      vertex 36.5489 42.309 11.5
      vertex 34.6468 42.9271 11.5
      vertex 34.5 42 11.5
    endloop
  endfacet
  facet normal 0 0 1
    outer loop
      vertex 36.5489 41.691 11.5
      vertex 34.6468 41.0729 11.5
      vertex 35.0729 40.2366 11.5
    endloop
  endfacet
  facet normal 0 0 1
    outer loop
      vertex 36.5 42 11.5
      vertex 34.5 42 11.5
      vertex 34.6468 41.0729 11.5
    endloop
  endfacet
  facet normal 0 0 1
    outer loop
      vertex -36.5 42 11.5
      vertex -34.6468 42.9271 11.5
      vertex -34.684 43 11.5
    endloop
  endfacet
  facet normal 0 0 1
    outer loop
      vertex -34.6468 42.9271 11.5
      vertex -36.5 42 11.5
      vertex -34.5 42 11.5
    endloop
  endfacet
  facet normal 0 0 1
    outer loop
      vertex -34.5 42 11.5
      vertex -36.5 42 11.5
      vertex -34.6468 41.0729 11.5
    endloop
  endfacet
  facet normal -0 0 1
    outer loop
      vertex -36.691 41.4122 11.5
      vertex -35.0729 40.2366 11.5
      vertex -36.5489 41.691 11.5
    endloop
  endfacet
  facet normal 0 0 1
    outer loop
      vertex -35.0729 40.2366 11.5
      vertex -36.691 41.4122 11.5
      vertex -35.7366 39.5729 11.5
    endloop
  endfacet
  facet normal -0 0 1
    outer loop
      vertex -36.9122 41.191 11.5
      vertex -35.7366 39.5729 11.5
      vertex -36.691 41.4122 11.5
    endloop
  endfacet
  facet normal 0 0 1
    outer loop
      vertex -35.7366 39.5729 11.5
      vertex -36.9122 41.191 11.5
      vertex -36.5729 39.1468 11.5
    endloop
  endfacet
  facet normal -0 0 1
    outer loop
      vertex -37.191 41.0489 11.5
      vertex -36.5729 39.1468 11.5
      vertex -36.9122 41.191 11.5
    endloop
  endfacet
  facet normal -0 0 1
    outer loop
      vertex -37.5 41 11.5
      vertex -36.5729 39.1468 11.5
      vertex -37.191 41.0489 11.5
    endloop
  endfacet
  facet normal 0 0 1
    outer loop
      vertex -37.5 41 11.5
      vertex -37.5 39 11.5
      vertex -36.5729 39.1468 11.5
    endloop
  endfacet
  facet normal 0 0 1
    outer loop
      vertex -37.809 41.0489 11.5
      vertex -37.5 39 11.5
      vertex -37.5 41 11.5
    endloop
  endfacet
  facet normal 0 0 1
    outer loop
      vertex -38.5 39.184 11.5
      vertex -37.809 41.0489 11.5
      vertex -38.0878 41.191 11.5
    endloop
  endfacet
  facet normal 0 0 1
    outer loop
      vertex -38.5 39.184 11.5
      vertex -38.0878 41.191 11.5
      vertex -38.309 41.4122 11.5
    endloop
  endfacet
  facet normal 0 0 1
    outer loop
      vertex -37.809 41.0489 11.5
      vertex -38.4271 39.1468 11.5
      vertex -37.5 39 11.5
    endloop
  endfacet
  facet normal 0 0 1
    outer loop
      vertex -38.5 39.184 11.5
      vertex -38.309 41.4122 11.5
      vertex -38.4511 41.691 11.5
    endloop
  endfacet
  facet normal 0 0 1
    outer loop
      vertex -40.5 45 11.5
      vertex -38.4511 41.691 11.5
      vertex -38.5 42 11.5
    endloop
  endfacet
  facet normal 0 0 1
    outer loop
      vertex -37.809 41.0489 11.5
      vertex -38.5 39.184 11.5
      vertex -38.4271 39.1468 11.5
    endloop
  endfacet
  facet normal 0 0 1
    outer loop
      vertex -34.6468 -41.0729 11.5
      vertex -36.5489 -41.691 11.5
      vertex -36.5 -42 11.5
    endloop
  endfacet
  facet normal 0 0 1
    outer loop
      vertex -36.9122 -41.191 11.5
      vertex -35.7366 -39.5729 11.5
      vertex -36.5729 -39.1468 11.5
    endloop
  endfacet
  facet normal 0 0 1
    outer loop
      vertex -35.0729 -40.2366 11.5
      vertex -36.691 -41.4122 11.5
      vertex -36.5489 -41.691 11.5
    endloop
  endfacet
  facet normal 0 0 1
    outer loop
      vertex -35.7366 -39.5729 11.5
      vertex -36.9122 -41.191 11.5
      vertex -36.691 -41.4122 11.5
    endloop
  endfacet
  facet normal 0 0 1
    outer loop
      vertex -36.5729 -39.1468 11.5
      vertex -37.191 -41.0489 11.5
      vertex -36.9122 -41.191 11.5
    endloop
  endfacet
  facet normal 0 0 1
    outer loop
      vertex -37.5 -39 11.5
      vertex -37.191 -41.0489 11.5
      vertex -36.5729 -39.1468 11.5
    endloop
  endfacet
  facet normal 0 0 1
    outer loop
      vertex -37.5 -39 11.5
      vertex -37.5 -41 11.5
      vertex -37.191 -41.0489 11.5
    endloop
  endfacet
  facet normal 0 0 1
    outer loop
      vertex -37.5 -39 11.5
      vertex -37.809 -41.0489 11.5
      vertex -37.5 -41 11.5
    endloop
  endfacet
  facet normal -0 0 1
    outer loop
      vertex -38.4271 -39.1468 11.5
      vertex -37.809 -41.0489 11.5
      vertex -37.5 -39 11.5
    endloop
  endfacet
  facet normal -0 0 1
    outer loop
      vertex -38.5 -39.184 11.5
      vertex -37.809 -41.0489 11.5
      vertex -38.4271 -39.1468 11.5
    endloop
  endfacet
  facet normal 0 0 1
    outer loop
      vertex -37.809 -41.0489 11.5
      vertex -38.5 -39.184 11.5
      vertex -38.0878 -41.191 11.5
    endloop
  endfacet
  facet normal 0 0 1
    outer loop
      vertex -38.0878 -41.191 11.5
      vertex -38.5 -39.184 11.5
      vertex -38.309 -41.4122 11.5
    endloop
  endfacet
  facet normal 0 0 1
    outer loop
      vertex -38.309 -41.4122 11.5
      vertex -38.5 -39.184 11.5
      vertex -38.4511 -41.691 11.5
    endloop
  endfacet
  facet normal 0 0 1
    outer loop
      vertex -38.4511 -41.691 11.5
      vertex -38.5 -39.184 11.5
      vertex -38.5 -42 11.5
    endloop
  endfacet
  facet normal 0 0 1
    outer loop
      vertex 40.5 -45 11.5
      vertex 38.4511 -41.691 11.5
      vertex 38.5 -42 11.5
    endloop
  endfacet
  facet normal 0 0 1
    outer loop
      vertex 37.809 -41.0489 11.5
      vertex 38.5 -39.184 11.5
      vertex 38.4271 -39.1468 11.5
    endloop
  endfacet
  facet normal 0 0 1
    outer loop
      vertex 38.5 -39.184 11.5
      vertex 38.309 -41.4122 11.5
      vertex 38.4511 -41.691 11.5
    endloop
  endfacet
  facet normal 0 0 1
    outer loop
      vertex 38.5 -39.184 11.5
      vertex 38.0878 -41.191 11.5
      vertex 38.309 -41.4122 11.5
    endloop
  endfacet
  facet normal 0 0 1
    outer loop
      vertex 38.5 -39.184 11.5
      vertex 37.809 -41.0489 11.5
      vertex 38.0878 -41.191 11.5
    endloop
  endfacet
  facet normal 0 0 1
    outer loop
      vertex 37.5 -39 11.5
      vertex 37.809 -41.0489 11.5
      vertex 38.4271 -39.1468 11.5
    endloop
  endfacet
  facet normal 0 0 1
    outer loop
      vertex 37.5 -39 11.5
      vertex 37.5 -41 11.5
      vertex 37.809 -41.0489 11.5
    endloop
  endfacet
  facet normal 0 0 1
    outer loop
      vertex 37.5 -39 11.5
      vertex 37.191 -41.0489 11.5
      vertex 37.5 -41 11.5
    endloop
  endfacet
  facet normal -0 0 1
    outer loop
      vertex 36.5729 -39.1468 11.5
      vertex 37.191 -41.0489 11.5
      vertex 37.5 -39 11.5
    endloop
  endfacet
  facet normal 0 0 1
    outer loop
      vertex 37.191 -41.0489 11.5
      vertex 36.5729 -39.1468 11.5
      vertex 36.9122 -41.191 11.5
    endloop
  endfacet
  facet normal -0 0 1
    outer loop
      vertex 35.7366 -39.5729 11.5
      vertex 36.9122 -41.191 11.5
      vertex 36.5729 -39.1468 11.5
    endloop
  endfacet
  facet normal 0 0 1
    outer loop
      vertex 36.9122 -41.191 11.5
      vertex 35.7366 -39.5729 11.5
      vertex 36.691 -41.4122 11.5
    endloop
  endfacet
  facet normal -0 0 1
    outer loop
      vertex 35.0729 -40.2366 11.5
      vertex 36.691 -41.4122 11.5
      vertex 35.7366 -39.5729 11.5
    endloop
  endfacet
  facet normal 0 0 1
    outer loop
      vertex 36.691 -41.4122 11.5
      vertex 35.0729 -40.2366 11.5
      vertex 36.5489 -41.691 11.5
    endloop
  endfacet
  facet normal 0 0 1
    outer loop
      vertex 38.5 -39.184 11.5
      vertex 40.5 -2 11.5
      vertex 38.5 -2 11.5
    endloop
  endfacet
  facet normal 0 0 1
    outer loop
      vertex 40.5 -2 11.5
      vertex 38.5 -39.184 11.5
      vertex 40.5 -45 11.5
    endloop
  endfacet
  facet normal -0 0 1
    outer loop
      vertex 38.4511 -41.691 11.5
      vertex 40.5 -45 11.5
      vertex 38.5 -39.184 11.5
    endloop
  endfacet
  facet normal -0 0 1
    outer loop
      vertex 38.4511 -42.309 11.5
      vertex 40.5 -45 11.5
      vertex 38.5 -42 11.5
    endloop
  endfacet
  facet normal -0 0 1
    outer loop
      vertex 38.309 -42.5878 11.5
      vertex 40.5 -45 11.5
      vertex 38.4511 -42.309 11.5
    endloop
  endfacet
  facet normal -0 0 1
    outer loop
      vertex 38.0878 -42.809 11.5
      vertex 40.5 -45 11.5
      vertex 38.309 -42.5878 11.5
    endloop
  endfacet
  facet normal -0 0 1
    outer loop
      vertex 37.809 -42.9511 11.5
      vertex 40.5 -45 11.5
      vertex 38.0878 -42.809 11.5
    endloop
  endfacet
  facet normal -0 0 1
    outer loop
      vertex 37.5 -43 11.5
      vertex 40.5 -45 11.5
      vertex 37.809 -42.9511 11.5
    endloop
  endfacet
  facet normal 0 0 1
    outer loop
      vertex 37.191 -42.9511 11.5
      vertex 40.5 -45 11.5
      vertex 37.5 -43 11.5
    endloop
  endfacet
  facet normal 0 0 1
    outer loop
      vertex 34.684 -43 11.5
      vertex 37.191 -42.9511 11.5
      vertex 36.9122 -42.809 11.5
    endloop
  endfacet
  facet normal -0 0 1
    outer loop
      vertex 34.6468 -41.0729 11.5
      vertex 36.5489 -41.691 11.5
      vertex 35.0729 -40.2366 11.5
    endloop
  endfacet
  facet normal 0 0 1
    outer loop
      vertex 36.5489 -41.691 11.5
      vertex 34.6468 -41.0729 11.5
      vertex 36.5 -42 11.5
    endloop
  endfacet
  facet normal 0 0 1
    outer loop
      vertex 36.5 -42 11.5
      vertex 34.684 -43 11.5
      vertex 36.5489 -42.309 11.5
    endloop
  endfacet
  facet normal 0 0 1
    outer loop
      vertex 36.5489 -42.309 11.5
      vertex 34.684 -43 11.5
      vertex 36.691 -42.5878 11.5
    endloop
  endfacet
  facet normal 0 0 1
    outer loop
      vertex 34.684 -43 11.5
      vertex 36.9122 -42.809 11.5
      vertex 36.691 -42.5878 11.5
    endloop
  endfacet
  facet normal 0 0 1
    outer loop
      vertex 37.191 -42.9511 11.5
      vertex 34.684 -43 11.5
      vertex 40.5 -45 11.5
    endloop
  endfacet
  facet normal -0 0 1
    outer loop
      vertex -34.684 -43 11.5
      vertex 40.5 -45 11.5
      vertex 34.684 -43 11.5
    endloop
  endfacet
  facet normal 0 0 1
    outer loop
      vertex -36.691 -41.4122 11.5
      vertex -35.0729 -40.2366 11.5
      vertex -35.7366 -39.5729 11.5
    endloop
  endfacet
  facet normal -0 0 1
    outer loop
      vertex -36.5489 -42.309 11.5
      vertex -34.6468 -42.9271 11.5
      vertex -36.5 -42 11.5
    endloop
  endfacet
  facet normal 0 0 1
    outer loop
      vertex -34.6468 -42.9271 11.5
      vertex -36.5489 -42.309 11.5
      vertex -34.684 -43 11.5
    endloop
  endfacet
  facet normal -0 0 1
    outer loop
      vertex -36.691 -42.5878 11.5
      vertex -34.684 -43 11.5
      vertex -36.5489 -42.309 11.5
    endloop
  endfacet
  facet normal -0 0 1
    outer loop
      vertex -36.9122 -42.809 11.5
      vertex -34.684 -43 11.5
      vertex -36.691 -42.5878 11.5
    endloop
  endfacet
  facet normal -0 0 1
    outer loop
      vertex -37.191 -42.9511 11.5
      vertex -34.684 -43 11.5
      vertex -36.9122 -42.809 11.5
    endloop
  endfacet
  facet normal 0 0 1
    outer loop
      vertex -40.5 -45 11.5
      vertex -34.684 -43 11.5
      vertex -37.191 -42.9511 11.5
    endloop
  endfacet
  facet normal 0 0 1
    outer loop
      vertex -40.5 -45 11.5
      vertex -37.191 -42.9511 11.5
      vertex -37.5 -43 11.5
    endloop
  endfacet
  facet normal 0 0 1
    outer loop
      vertex -34.684 -43 11.5
      vertex -40.5 -45 11.5
      vertex 40.5 -45 11.5
    endloop
  endfacet
  facet normal 0 0 1
    outer loop
      vertex -37.809 -42.9511 11.5
      vertex -40.5 -45 11.5
      vertex -37.5 -43 11.5
    endloop
  endfacet
  facet normal 0 0 1
    outer loop
      vertex -38.0878 -42.809 11.5
      vertex -40.5 -45 11.5
      vertex -37.809 -42.9511 11.5
    endloop
  endfacet
  facet normal 0 0 1
    outer loop
      vertex -38.309 -42.5878 11.5
      vertex -40.5 -45 11.5
      vertex -38.0878 -42.809 11.5
    endloop
  endfacet
  facet normal 0 0 1
    outer loop
      vertex -38.4511 -42.309 11.5
      vertex -40.5 -45 11.5
      vertex -38.309 -42.5878 11.5
    endloop
  endfacet
  facet normal 0 0 1
    outer loop
      vertex -38.5 -42 11.5
      vertex -40.5 -45 11.5
      vertex -38.4511 -42.309 11.5
    endloop
  endfacet
  facet normal 0 0 1
    outer loop
      vertex -38.5 -39.184 11.5
      vertex -40.5 -45 11.5
      vertex -38.5 -42 11.5
    endloop
  endfacet
  facet normal 0 0 -1
    outer loop
      vertex -40.5 -45 -11.5
      vertex 40.5 45 -11.5
      vertex 40.5 -45 -11.5
    endloop
  endfacet
  facet normal -0 0 -1
    outer loop
      vertex 40.5 45 -11.5
      vertex -40.5 -45 -11.5
      vertex -40.5 45 -11.5
    endloop
  endfacet
  facet normal -1 0 0
    outer loop
      vertex -40.5 -45 -11.5
      vertex -40.5 45 11.5
      vertex -40.5 45 -11.5
    endloop
  endfacet
  facet normal -1 -0 0
    outer loop
      vertex -40.5 45 11.5
      vertex -40.5 -45 -11.5
      vertex -40.5 -45 11.5
    endloop
  endfacet
  facet normal 0 1 -0
    outer loop
      vertex 40.5 45 -11.5
      vertex -40.5 45 11.5
      vertex 40.5 45 11.5
    endloop
  endfacet
  facet normal 0 1 0
    outer loop
      vertex -40.5 45 11.5
      vertex 40.5 45 -11.5
      vertex -40.5 45 -11.5
    endloop
  endfacet
  facet normal 0 -1 0
    outer loop
      vertex -40.5 -45 -11.5
      vertex 40.5 -45 11.5
      vertex -40.5 -45 11.5
    endloop
  endfacet
  facet normal 0 -1 -0
    outer loop
      vertex 40.5 -45 11.5
      vertex -40.5 -45 -11.5
      vertex 40.5 -45 -11.5
    endloop
  endfacet
  facet normal -1 0 0
    outer loop
      vertex 38.5 39.184 -9.5
      vertex 38.5 2 -7.5
      vertex 38.5 39.184 11.5
    endloop
  endfacet
  facet normal -1 0 0
    outer loop
      vertex 38.5 39.184 -9.5
      vertex 38.5 -2 -7.5
      vertex 38.5 2 -7.5
    endloop
  endfacet
  facet normal -1 0 0
    outer loop
      vertex 38.5 -39.184 -9.5
      vertex 38.5 -2 -7.5
      vertex 38.5 39.184 -9.5
    endloop
  endfacet
  facet normal -1 0 0
    outer loop
      vertex 38.5 -39.184 11.5
      vertex 38.5 -2 -7.5
      vertex 38.5 -39.184 -9.5
    endloop
  endfacet
  facet normal -1 0 0
    outer loop
      vertex 38.5 -2 -7.5
      vertex 38.5 -39.184 11.5
      vertex 38.5 -2 11.5
    endloop
  endfacet
  facet normal -1 -0 0
    outer loop
      vertex 38.5 39.184 11.5
      vertex 38.5 2 -7.5
      vertex 38.5 2 11.5
    endloop
  endfacet
  facet normal 0 0 1
    outer loop
      vertex -36.5489 42.309 -9.5
      vertex -36.5489 41.691 -9.5
      vertex -36.5 42 -9.5
    endloop
  endfacet
  facet normal 0 0 1
    outer loop
      vertex -36.691 42.5878 -9.5
      vertex -36.5489 41.691 -9.5
      vertex -36.5489 42.309 -9.5
    endloop
  endfacet
  facet normal 0 0 1
    outer loop
      vertex -36.691 42.5878 -9.5
      vertex -36.691 41.4122 -9.5
      vertex -36.5489 41.691 -9.5
    endloop
  endfacet
  facet normal 0 0 1
    outer loop
      vertex -36.9122 42.809 -9.5
      vertex -36.691 41.4122 -9.5
      vertex -36.691 42.5878 -9.5
    endloop
  endfacet
  facet normal 0 0 1
    outer loop
      vertex -36.9122 42.809 -9.5
      vertex -36.9122 41.191 -9.5
      vertex -36.691 41.4122 -9.5
    endloop
  endfacet
  facet normal 0 0 1
    outer loop
      vertex -37.191 42.9511 -9.5
      vertex -36.9122 41.191 -9.5
      vertex -36.9122 42.809 -9.5
    endloop
  endfacet
  facet normal 0 0 1
    outer loop
      vertex -37.191 42.9511 -9.5
      vertex -37.191 41.0489 -9.5
      vertex -36.9122 41.191 -9.5
    endloop
  endfacet
  facet normal 0 0 1
    outer loop
      vertex -37.5 43 -9.5
      vertex -37.191 41.0489 -9.5
      vertex -37.191 42.9511 -9.5
    endloop
  endfacet
  facet normal 0 0 1
    outer loop
      vertex -37.5 43 -9.5
      vertex -37.5 41 -9.5
      vertex -37.191 41.0489 -9.5
    endloop
  endfacet
  facet normal -0 0 1
    outer loop
      vertex -37.809 42.9511 -9.5
      vertex -37.5 41 -9.5
      vertex -37.5 43 -9.5
    endloop
  endfacet
  facet normal 0 0 1
    outer loop
      vertex -37.809 42.9511 -9.5
      vertex -37.809 41.0489 -9.5
      vertex -37.5 41 -9.5
    endloop
  endfacet
  facet normal -0 0 1
    outer loop
      vertex -38.0878 42.809 -9.5
      vertex -37.809 41.0489 -9.5
      vertex -37.809 42.9511 -9.5
    endloop
  endfacet
  facet normal 0 0 1
    outer loop
      vertex -38.0878 42.809 -9.5
      vertex -38.0878 41.191 -9.5
      vertex -37.809 41.0489 -9.5
    endloop
  endfacet
  facet normal -0 0 1
    outer loop
      vertex -38.309 42.5878 -9.5
      vertex -38.0878 41.191 -9.5
      vertex -38.0878 42.809 -9.5
    endloop
  endfacet
  facet normal 0 0 1
    outer loop
      vertex -38.309 42.5878 -9.5
      vertex -38.309 41.4122 -9.5
      vertex -38.0878 41.191 -9.5
    endloop
  endfacet
  facet normal -0 0 1
    outer loop
      vertex -38.4511 42.309 -9.5
      vertex -38.309 41.4122 -9.5
      vertex -38.309 42.5878 -9.5
    endloop
  endfacet
  facet normal 0 0 1
    outer loop
      vertex -38.4511 42.309 -9.5
      vertex -38.4511 41.691 -9.5
      vertex -38.309 41.4122 -9.5
    endloop
  endfacet
  facet normal 0 -0 1
    outer loop
      vertex -38.4511 41.691 -9.5
      vertex -38.4511 42.309 -9.5
      vertex -38.5 42 -9.5
    endloop
  endfacet
  facet normal 0 0 1
    outer loop
      vertex -36.5489 -41.691 -9.5
      vertex -36.5489 -42.309 -9.5
      vertex -36.5 -42 -9.5
    endloop
  endfacet
  facet normal 0 0 1
    outer loop
      vertex -36.691 -41.4122 -9.5
      vertex -36.5489 -42.309 -9.5
      vertex -36.5489 -41.691 -9.5
    endloop
  endfacet
  facet normal 0 0 1
    outer loop
      vertex -36.691 -41.4122 -9.5
      vertex -36.691 -42.5878 -9.5
      vertex -36.5489 -42.309 -9.5
    endloop
  endfacet
  facet normal 0 0 1
    outer loop
      vertex -36.9122 -41.191 -9.5
      vertex -36.691 -42.5878 -9.5
      vertex -36.691 -41.4122 -9.5
    endloop
  endfacet
  facet normal 0 0 1
    outer loop
      vertex -36.9122 -41.191 -9.5
      vertex -36.9122 -42.809 -9.5
      vertex -36.691 -42.5878 -9.5
    endloop
  endfacet
  facet normal 0 0 1
    outer loop
      vertex -37.191 -41.0489 -9.5
      vertex -36.9122 -42.809 -9.5
      vertex -36.9122 -41.191 -9.5
    endloop
  endfacet
  facet normal 0 0 1
    outer loop
      vertex -37.191 -41.0489 -9.5
      vertex -37.191 -42.9511 -9.5
      vertex -36.9122 -42.809 -9.5
    endloop
  endfacet
  facet normal 0 0 1
    outer loop
      vertex -37.5 -41 -9.5
      vertex -37.191 -42.9511 -9.5
      vertex -37.191 -41.0489 -9.5
    endloop
  endfacet
  facet normal 0 0 1
    outer loop
      vertex -37.5 -41 -9.5
      vertex -37.5 -43 -9.5
      vertex -37.191 -42.9511 -9.5
    endloop
  endfacet
  facet normal -0 0 1
    outer loop
      vertex -37.809 -41.0489 -9.5
      vertex -37.5 -43 -9.5
      vertex -37.5 -41 -9.5
    endloop
  endfacet
  facet normal 0 0 1
    outer loop
      vertex -37.809 -41.0489 -9.5
      vertex -37.809 -42.9511 -9.5
      vertex -37.5 -43 -9.5
    endloop
  endfacet
  facet normal -0 0 1
    outer loop
      vertex -38.0878 -41.191 -9.5
      vertex -37.809 -42.9511 -9.5
      vertex -37.809 -41.0489 -9.5
    endloop
  endfacet
  facet normal 0 0 1
    outer loop
      vertex -38.0878 -41.191 -9.5
      vertex -38.0878 -42.809 -9.5
      vertex -37.809 -42.9511 -9.5
    endloop
  endfacet
  facet normal -0 0 1
    outer loop
      vertex -38.309 -41.4122 -9.5
      vertex -38.0878 -42.809 -9.5
      vertex -38.0878 -41.191 -9.5
    endloop
  endfacet
  facet normal 0 0 1
    outer loop
      vertex -38.309 -41.4122 -9.5
      vertex -38.309 -42.5878 -9.5
      vertex -38.0878 -42.809 -9.5
    endloop
  endfacet
  facet normal -0 0 1
    outer loop
      vertex -38.4511 -41.691 -9.5
      vertex -38.309 -42.5878 -9.5
      vertex -38.309 -41.4122 -9.5
    endloop
  endfacet
  facet normal 0 0 1
    outer loop
      vertex -38.4511 -41.691 -9.5
      vertex -38.4511 -42.309 -9.5
      vertex -38.309 -42.5878 -9.5
    endloop
  endfacet
  facet normal 0 -0 1
    outer loop
      vertex -38.4511 -42.309 -9.5
      vertex -38.4511 -41.691 -9.5
      vertex -38.5 -42 -9.5
    endloop
  endfacet
  facet normal 0 0 1
    outer loop
      vertex 38.4511 42.309 -9.5
      vertex 38.4511 41.691 -9.5
      vertex 38.5 42 -9.5
    endloop
  endfacet
  facet normal 0 0 1
    outer loop
      vertex 38.309 42.5878 -9.5
      vertex 38.4511 41.691 -9.5
      vertex 38.4511 42.309 -9.5
    endloop
  endfacet
  facet normal 0 0 1
    outer loop
      vertex 38.309 42.5878 -9.5
      vertex 38.309 41.4122 -9.5
      vertex 38.4511 41.691 -9.5
    endloop
  endfacet
  facet normal 0 0 1
    outer loop
      vertex 38.0878 42.809 -9.5
      vertex 38.309 41.4122 -9.5
      vertex 38.309 42.5878 -9.5
    endloop
  endfacet
  facet normal 0 0 1
    outer loop
      vertex 38.0878 42.809 -9.5
      vertex 38.0878 41.191 -9.5
      vertex 38.309 41.4122 -9.5
    endloop
  endfacet
  facet normal 0 0 1
    outer loop
      vertex 37.809 42.9511 -9.5
      vertex 38.0878 41.191 -9.5
      vertex 38.0878 42.809 -9.5
    endloop
  endfacet
  facet normal 0 0 1
    outer loop
      vertex 37.809 42.9511 -9.5
      vertex 37.809 41.0489 -9.5
      vertex 38.0878 41.191 -9.5
    endloop
  endfacet
  facet normal 0 0 1
    outer loop
      vertex 37.5 43 -9.5
      vertex 37.809 41.0489 -9.5
      vertex 37.809 42.9511 -9.5
    endloop
  endfacet
  facet normal 0 0 1
    outer loop
      vertex 37.5 43 -9.5
      vertex 37.5 41 -9.5
      vertex 37.809 41.0489 -9.5
    endloop
  endfacet
  facet normal -0 0 1
    outer loop
      vertex 37.191 42.9511 -9.5
      vertex 37.5 41 -9.5
      vertex 37.5 43 -9.5
    endloop
  endfacet
  facet normal 0 0 1
    outer loop
      vertex 37.191 42.9511 -9.5
      vertex 37.191 41.0489 -9.5
      vertex 37.5 41 -9.5
    endloop
  endfacet
  facet normal -0 0 1
    outer loop
      vertex 36.9122 42.809 -9.5
      vertex 37.191 41.0489 -9.5
      vertex 37.191 42.9511 -9.5
    endloop
  endfacet
  facet normal 0 0 1
    outer loop
      vertex 36.9122 42.809 -9.5
      vertex 36.9122 41.191 -9.5
      vertex 37.191 41.0489 -9.5
    endloop
  endfacet
  facet normal -0 0 1
    outer loop
      vertex 36.691 42.5878 -9.5
      vertex 36.9122 41.191 -9.5
      vertex 36.9122 42.809 -9.5
    endloop
  endfacet
  facet normal 0 0 1
    outer loop
      vertex 36.691 42.5878 -9.5
      vertex 36.691 41.4122 -9.5
      vertex 36.9122 41.191 -9.5
    endloop
  endfacet
  facet normal -0 0 1
    outer loop
      vertex 36.5489 42.309 -9.5
      vertex 36.691 41.4122 -9.5
      vertex 36.691 42.5878 -9.5
    endloop
  endfacet
  facet normal 0 0 1
    outer loop
      vertex 36.5489 42.309 -9.5
      vertex 36.5489 41.691 -9.5
      vertex 36.691 41.4122 -9.5
    endloop
  endfacet
  facet normal 0 -0 1
    outer loop
      vertex 36.5489 41.691 -9.5
      vertex 36.5489 42.309 -9.5
      vertex 36.5 42 -9.5
    endloop
  endfacet
  facet normal 0 0 1
    outer loop
      vertex 38.4511 -41.691 -9.5
      vertex 38.4511 -42.309 -9.5
      vertex 38.5 -42 -9.5
    endloop
  endfacet
  facet normal 0 0 1
    outer loop
      vertex 38.309 -41.4122 -9.5
      vertex 38.4511 -42.309 -9.5
      vertex 38.4511 -41.691 -9.5
    endloop
  endfacet
  facet normal 0 0 1
    outer loop
      vertex 38.309 -41.4122 -9.5
      vertex 38.309 -42.5878 -9.5
      vertex 38.4511 -42.309 -9.5
    endloop
  endfacet
  facet normal 0 0 1
    outer loop
      vertex 38.0878 -41.191 -9.5
      vertex 38.309 -42.5878 -9.5
      vertex 38.309 -41.4122 -9.5
    endloop
  endfacet
  facet normal 0 0 1
    outer loop
      vertex 38.0878 -41.191 -9.5
      vertex 38.0878 -42.809 -9.5
      vertex 38.309 -42.5878 -9.5
    endloop
  endfacet
  facet normal 0 0 1
    outer loop
      vertex 37.809 -41.0489 -9.5
      vertex 38.0878 -42.809 -9.5
      vertex 38.0878 -41.191 -9.5
    endloop
  endfacet
  facet normal 0 0 1
    outer loop
      vertex 37.809 -41.0489 -9.5
      vertex 37.809 -42.9511 -9.5
      vertex 38.0878 -42.809 -9.5
    endloop
  endfacet
  facet normal 0 0 1
    outer loop
      vertex 37.5 -41 -9.5
      vertex 37.809 -42.9511 -9.5
      vertex 37.809 -41.0489 -9.5
    endloop
  endfacet
  facet normal 0 0 1
    outer loop
      vertex 37.5 -41 -9.5
      vertex 37.5 -43 -9.5
      vertex 37.809 -42.9511 -9.5
    endloop
  endfacet
  facet normal -0 0 1
    outer loop
      vertex 37.191 -41.0489 -9.5
      vertex 37.5 -43 -9.5
      vertex 37.5 -41 -9.5
    endloop
  endfacet
  facet normal 0 0 1
    outer loop
      vertex 37.191 -41.0489 -9.5
      vertex 37.191 -42.9511 -9.5
      vertex 37.5 -43 -9.5
    endloop
  endfacet
  facet normal -0 0 1
    outer loop
      vertex 36.9122 -41.191 -9.5
      vertex 37.191 -42.9511 -9.5
      vertex 37.191 -41.0489 -9.5
    endloop
  endfacet
  facet normal 0 0 1
    outer loop
      vertex 36.9122 -41.191 -9.5
      vertex 36.9122 -42.809 -9.5
      vertex 37.191 -42.9511 -9.5
    endloop
  endfacet
  facet normal -0 0 1
    outer loop
      vertex 36.691 -41.4122 -9.5
      vertex 36.9122 -42.809 -9.5
      vertex 36.9122 -41.191 -9.5
    endloop
  endfacet
  facet normal 0 0 1
    outer loop
      vertex 36.691 -41.4122 -9.5
      vertex 36.691 -42.5878 -9.5
      vertex 36.9122 -42.809 -9.5
    endloop
  endfacet
  facet normal -0 0 1
    outer loop
      vertex 36.5489 -41.691 -9.5
      vertex 36.691 -42.5878 -9.5
      vertex 36.691 -41.4122 -9.5
    endloop
  endfacet
  facet normal 0 0 1
    outer loop
      vertex 36.5489 -41.691 -9.5
      vertex 36.5489 -42.309 -9.5
      vertex 36.691 -42.5878 -9.5
    endloop
  endfacet
  facet normal 0 -0 1
    outer loop
      vertex 36.5489 -42.309 -9.5
      vertex 36.5489 -41.691 -9.5
      vertex 36.5 -42 -9.5
    endloop
  endfacet
  facet normal 0 0 1
    outer loop
      vertex -35.7366 39.5729 -9.5
      vertex 35.7366 39.5729 -9.5
      vertex -35.0729 40.2366 -9.5
    endloop
  endfacet
  facet normal 0 0 1
    outer loop
      vertex 35.7366 -39.5729 -9.5
      vertex -34.6468 -41.0729 -9.5
      vertex -34.5 -42 -9.5
    endloop
  endfacet
  facet normal 0 0 1
    outer loop
      vertex 35.7366 39.5729 -9.5
      vertex -35.7366 39.5729 -9.5
      vertex 35.7366 -39.5729 -9.5
    endloop
  endfacet
  facet normal 0 0 1
    outer loop
      vertex 35.7366 -39.5729 -9.5
      vertex -35.0729 -40.2366 -9.5
      vertex -34.6468 -41.0729 -9.5
    endloop
  endfacet
  facet normal 0 0 1
    outer loop
      vertex -35.7366 -39.5729 -9.5
      vertex 35.7366 -39.5729 -9.5
      vertex -35.7366 39.5729 -9.5
    endloop
  endfacet
  facet normal 0 0 1
    outer loop
      vertex 35.7366 -39.5729 -9.5
      vertex -35.7366 -39.5729 -9.5
      vertex -35.0729 -40.2366 -9.5
    endloop
  endfacet
  facet normal -0 0 1
    outer loop
      vertex -36.5729 39.1468 -9.5
      vertex -35.7366 -39.5729 -9.5
      vertex -35.7366 39.5729 -9.5
    endloop
  endfacet
  facet normal 0 0 1
    outer loop
      vertex -36.5729 39.1468 -9.5
      vertex -36.5729 -39.1468 -9.5
      vertex -35.7366 -39.5729 -9.5
    endloop
  endfacet
  facet normal -0 0 1
    outer loop
      vertex -37.5 39 -9.5
      vertex -36.5729 -39.1468 -9.5
      vertex -36.5729 39.1468 -9.5
    endloop
  endfacet
  facet normal 0 0 1
    outer loop
      vertex -37.5 39 -9.5
      vertex -37.5 -39 -9.5
      vertex -36.5729 -39.1468 -9.5
    endloop
  endfacet
  facet normal 0 0 1
    outer loop
      vertex -38.4271 39.1468 -9.5
      vertex -37.5 -39 -9.5
      vertex -37.5 39 -9.5
    endloop
  endfacet
  facet normal 0 0 1
    outer loop
      vertex -38.4271 39.1468 -9.5
      vertex -38.4271 -39.1468 -9.5
      vertex -37.5 -39 -9.5
    endloop
  endfacet
  facet normal 0 0 1
    outer loop
      vertex -38.5 39.184 -9.5
      vertex -38.4271 -39.1468 -9.5
      vertex -38.4271 39.1468 -9.5
    endloop
  endfacet
  facet normal 0 0 1
    outer loop
      vertex -38.4271 -39.1468 -9.5
      vertex -38.5 39.184 -9.5
      vertex -38.5 -39.184 -9.5
    endloop
  endfacet
  facet normal 0 0 1
    outer loop
      vertex 35.0729 -40.2366 -9.5
      vertex -34.5 -42 -9.5
      vertex 34.6468 -41.0729 -9.5
    endloop
  endfacet
  facet normal 0 0 1
    outer loop
      vertex 34.6468 42.9271 -9.5
      vertex -34.5 42 -9.5
      vertex 34.5 42 -9.5
    endloop
  endfacet
  facet normal 0 0 1
    outer loop
      vertex -34.6468 42.9271 -9.5
      vertex 34.6468 42.9271 -9.5
      vertex 34.684 43 -9.5
    endloop
  endfacet
  facet normal 0 0 1
    outer loop
      vertex 34.6468 42.9271 -9.5
      vertex -34.6468 42.9271 -9.5
      vertex -34.5 42 -9.5
    endloop
  endfacet
  facet normal 0 -0 1
    outer loop
      vertex -34.6468 42.9271 -9.5
      vertex 34.684 43 -9.5
      vertex -34.684 43 -9.5
    endloop
  endfacet
  facet normal -0 0 1
    outer loop
      vertex 38.4271 39.1468 -9.5
      vertex 38.5 -39.184 -9.5
      vertex 38.5 39.184 -9.5
    endloop
  endfacet
  facet normal 0 0 1
    outer loop
      vertex 38.4271 39.1468 -9.5
      vertex 38.4271 -39.1468 -9.5
      vertex 38.5 -39.184 -9.5
    endloop
  endfacet
  facet normal -0 0 1
    outer loop
      vertex 37.5 39 -9.5
      vertex 38.4271 -39.1468 -9.5
      vertex 38.4271 39.1468 -9.5
    endloop
  endfacet
  facet normal 0 0 1
    outer loop
      vertex 37.5 39 -9.5
      vertex 37.5 -39 -9.5
      vertex 38.4271 -39.1468 -9.5
    endloop
  endfacet
  facet normal 0 0 1
    outer loop
      vertex 36.5729 39.1468 -9.5
      vertex 37.5 -39 -9.5
      vertex 37.5 39 -9.5
    endloop
  endfacet
  facet normal 0 0 1
    outer loop
      vertex 36.5729 39.1468 -9.5
      vertex 36.5729 -39.1468 -9.5
      vertex 37.5 -39 -9.5
    endloop
  endfacet
  facet normal 0 0 1
    outer loop
      vertex 35.7366 39.5729 -9.5
      vertex 36.5729 -39.1468 -9.5
      vertex 36.5729 39.1468 -9.5
    endloop
  endfacet
  facet normal 0 0 1
    outer loop
      vertex 35.7366 39.5729 -9.5
      vertex 35.7366 -39.5729 -9.5
      vertex 36.5729 -39.1468 -9.5
    endloop
  endfacet
  facet normal 0 0 1
    outer loop
      vertex 34.6468 41.0729 -9.5
      vertex -34.6468 41.0729 -9.5
      vertex 35.0729 40.2366 -9.5
    endloop
  endfacet
  facet normal 0 0 1
    outer loop
      vertex -35.0729 40.2366 -9.5
      vertex 35.0729 40.2366 -9.5
      vertex -34.6468 41.0729 -9.5
    endloop
  endfacet
  facet normal 0 0 1
    outer loop
      vertex -34.6468 41.0729 -9.5
      vertex 34.6468 41.0729 -9.5
      vertex -34.5 42 -9.5
    endloop
  endfacet
  facet normal 0 0 1
    outer loop
      vertex 35.0729 40.2366 -9.5
      vertex -35.0729 40.2366 -9.5
      vertex 35.7366 39.5729 -9.5
    endloop
  endfacet
  facet normal -0 0 1
    outer loop
      vertex -34.5 42 -9.5
      vertex 34.6468 41.0729 -9.5
      vertex 34.5 42 -9.5
    endloop
  endfacet
  facet normal 0 0 1
    outer loop
      vertex 35.7366 -39.5729 -9.5
      vertex -34.5 -42 -9.5
      vertex 35.0729 -40.2366 -9.5
    endloop
  endfacet
  facet normal 0 0 1
    outer loop
      vertex 34.6468 -41.0729 -9.5
      vertex -34.5 -42 -9.5
      vertex 34.5 -42 -9.5
    endloop
  endfacet
  facet normal 0 0 1
    outer loop
      vertex 34.5 -42 -9.5
      vertex -34.5 -42 -9.5
      vertex 34.6468 -42.9271 -9.5
    endloop
  endfacet
  facet normal 0 0 1
    outer loop
      vertex -34.6468 -42.9271 -9.5
      vertex 34.6468 -42.9271 -9.5
      vertex -34.5 -42 -9.5
    endloop
  endfacet
  facet normal 0 0 1
    outer loop
      vertex 34.6468 -42.9271 -9.5
      vertex -34.6468 -42.9271 -9.5
      vertex 34.684 -43 -9.5
    endloop
  endfacet
  facet normal 0 0 1
    outer loop
      vertex 34.684 -43 -9.5
      vertex -34.6468 -42.9271 -9.5
      vertex -34.684 -43 -9.5
    endloop
  endfacet
  facet normal 1 -0 0
    outer loop
      vertex -38.5 -39.184 11.5
      vertex -38.5 39.184 -9.5
      vertex -38.5 39.184 11.5
    endloop
  endfacet
  facet normal 1 0 0
    outer loop
      vertex -38.5 39.184 -9.5
      vertex -38.5 -39.184 11.5
      vertex -38.5 -39.184 -9.5
    endloop
  endfacet
  facet normal 0 -1 0
    outer loop
      vertex -34.684 43 -9.5
      vertex 34.684 43 11.5
      vertex -34.684 43 11.5
    endloop
  endfacet
  facet normal 0 -1 -0
    outer loop
      vertex 34.684 43 11.5
      vertex -34.684 43 -9.5
      vertex 34.684 43 -9.5
    endloop
  endfacet
  facet normal 0 1 -0
    outer loop
      vertex 34.684 -43 -9.5
      vertex -34.684 -43 11.5
      vertex 34.684 -43 11.5
    endloop
  endfacet
  facet normal 0 1 0
    outer loop
      vertex -34.684 -43 11.5
      vertex 34.684 -43 -9.5
      vertex -34.684 -43 -9.5
    endloop
  endfacet
  facet normal -0 0 1
    outer loop
      vertex 38.5 2 -7.5
      vertex 40.5 -2 -7.5
      vertex 40.5 2 -7.5
    endloop
  endfacet
  facet normal 0 0 1
    outer loop
      vertex 40.5 -2 -7.5
      vertex 38.5 2 -7.5
      vertex 38.5 -2 -7.5
    endloop
  endfacet
  facet normal 0 -1 0
    outer loop
      vertex 38.5 2 -7.5
      vertex 40.5 2 11.5
      vertex 38.5 2 11.5
    endloop
  endfacet
  facet normal 0 -1 -0
    outer loop
      vertex 40.5 2 11.5
      vertex 38.5 2 -7.5
      vertex 40.5 2 -7.5
    endloop
  endfacet
  facet normal 0 1 -0
    outer loop
      vertex 40.5 -2 -7.5
      vertex 38.5 -2 11.5
      vertex 40.5 -2 11.5
    endloop
  endfacet
  facet normal 0 1 0
    outer loop
      vertex 38.5 -2 11.5
      vertex 40.5 -2 -7.5
      vertex 38.5 -2 -7.5
    endloop
  endfacet
  facet normal 0.156395 -0.987695 0
    outer loop
      vertex 37.5 39 -9.5
      vertex 38.4271 39.1468 11.5
      vertex 37.5 39 11.5
    endloop
  endfacet
  facet normal 0.156395 -0.987695 0
    outer loop
      vertex 38.4271 39.1468 11.5
      vertex 37.5 39 -9.5
      vertex 38.4271 39.1468 -9.5
    endloop
  endfacet
  facet normal -0.156395 -0.987695 0
    outer loop
      vertex 36.5729 39.1468 -9.5
      vertex 37.5 39 11.5
      vertex 36.5729 39.1468 11.5
    endloop
  endfacet
  facet normal -0.156395 -0.987695 -0
    outer loop
      vertex 37.5 39 11.5
      vertex 36.5729 39.1468 -9.5
      vertex 37.5 39 -9.5
    endloop
  endfacet
  facet normal -0.453977 -0.891013 0
    outer loop
      vertex 35.7366 39.5729 -9.5
      vertex 36.5729 39.1468 11.5
      vertex 35.7366 39.5729 11.5
    endloop
  endfacet
  facet normal -0.453977 -0.891013 -0
    outer loop
      vertex 36.5729 39.1468 11.5
      vertex 35.7366 39.5729 -9.5
      vertex 36.5729 39.1468 -9.5
    endloop
  endfacet
  facet normal -0.987695 0.156395 0
    outer loop
      vertex 34.5 42 -9.5
      vertex 34.6468 42.9271 11.5
      vertex 34.6468 42.9271 -9.5
    endloop
  endfacet
  facet normal -0.987695 0.156395 0
    outer loop
      vertex 34.6468 42.9271 11.5
      vertex 34.5 42 -9.5
      vertex 34.5 42 11.5
    endloop
  endfacet
  facet normal -0.987695 -0.156395 0
    outer loop
      vertex 34.6468 41.0729 -9.5
      vertex 34.5 42 11.5
      vertex 34.5 42 -9.5
    endloop
  endfacet
  facet normal -0.987695 -0.156395 0
    outer loop
      vertex 34.5 42 11.5
      vertex 34.6468 41.0729 -9.5
      vertex 34.6468 41.0729 11.5
    endloop
  endfacet
  facet normal -0.707107 -0.707107 0
    outer loop
      vertex 35.7366 39.5729 -9.5
      vertex 35.0729 40.2366 11.5
      vertex 35.0729 40.2366 -9.5
    endloop
  endfacet
  facet normal -0.707107 -0.707107 0
    outer loop
      vertex 35.0729 40.2366 11.5
      vertex 35.7366 39.5729 -9.5
      vertex 35.7366 39.5729 11.5
    endloop
  endfacet
  facet normal 0.45453 -0.890732 0
    outer loop
      vertex 38.4271 39.1468 -9.5
      vertex 38.5 39.184 11.5
      vertex 38.4271 39.1468 11.5
    endloop
  endfacet
  facet normal 0.45453 -0.890732 0
    outer loop
      vertex 38.5 39.184 11.5
      vertex 38.4271 39.1468 -9.5
      vertex 38.5 39.184 -9.5
    endloop
  endfacet
  facet normal -0.891013 -0.453977 0
    outer loop
      vertex 35.0729 40.2366 -9.5
      vertex 34.6468 41.0729 11.5
      vertex 34.6468 41.0729 -9.5
    endloop
  endfacet
  facet normal -0.891013 -0.453977 0
    outer loop
      vertex 34.6468 41.0729 11.5
      vertex 35.0729 40.2366 -9.5
      vertex 35.0729 40.2366 11.5
    endloop
  endfacet
  facet normal -0.890732 0.45453 0
    outer loop
      vertex 34.6468 42.9271 -9.5
      vertex 34.684 43 11.5
      vertex 34.684 43 -9.5
    endloop
  endfacet
  facet normal -0.890732 0.45453 0
    outer loop
      vertex 34.684 43 11.5
      vertex 34.6468 42.9271 -9.5
      vertex 34.6468 42.9271 11.5
    endloop
  endfacet
  facet normal 0.987708 0.156307 0
    outer loop
      vertex 36.5489 41.691 11.5
      vertex 36.5 42 -9.5
      vertex 36.5 42 11.5
    endloop
  endfacet
  facet normal 0.987708 0.156307 0
    outer loop
      vertex 36.5 42 -9.5
      vertex 36.5489 41.691 11.5
      vertex 36.5489 41.691 -9.5
    endloop
  endfacet
  facet normal -0.890949 -0.454103 0
    outer loop
      vertex 38.4511 42.309 -9.5
      vertex 38.309 42.5878 11.5
      vertex 38.309 42.5878 -9.5
    endloop
  endfacet
  facet normal -0.890949 -0.454103 0
    outer loop
      vertex 38.309 42.5878 11.5
      vertex 38.4511 42.309 -9.5
      vertex 38.4511 42.309 11.5
    endloop
  endfacet
  facet normal -0.156307 0.987708 0
    outer loop
      vertex 37.809 41.0489 -9.5
      vertex 37.5 41 11.5
      vertex 37.809 41.0489 11.5
    endloop
  endfacet
  facet normal -0.156307 0.987708 0
    outer loop
      vertex 37.5 41 11.5
      vertex 37.809 41.0489 -9.5
      vertex 37.5 41 -9.5
    endloop
  endfacet
  facet normal 0.156307 -0.987708 0
    outer loop
      vertex 37.191 42.9511 -9.5
      vertex 37.5 43 11.5
      vertex 37.191 42.9511 11.5
    endloop
  endfacet
  facet normal 0.156307 -0.987708 0
    outer loop
      vertex 37.5 43 11.5
      vertex 37.191 42.9511 -9.5
      vertex 37.5 43 -9.5
    endloop
  endfacet
  facet normal -0.987708 0.156307 0
    outer loop
      vertex 38.4511 41.691 -9.5
      vertex 38.5 42 11.5
      vertex 38.5 42 -9.5
    endloop
  endfacet
  facet normal -0.987708 0.156307 0
    outer loop
      vertex 38.5 42 11.5
      vertex 38.4511 41.691 -9.5
      vertex 38.4511 41.691 11.5
    endloop
  endfacet
  facet normal -0.987708 -0.156307 0
    outer loop
      vertex 38.5 42 -9.5
      vertex 38.4511 42.309 11.5
      vertex 38.4511 42.309 -9.5
    endloop
  endfacet
  facet normal -0.987708 -0.156307 0
    outer loop
      vertex 38.4511 42.309 11.5
      vertex 38.5 42 -9.5
      vertex 38.5 42 11.5
    endloop
  endfacet
  facet normal -0.454103 0.890949 0
    outer loop
      vertex 38.0878 41.191 -9.5
      vertex 37.809 41.0489 11.5
      vertex 38.0878 41.191 11.5
    endloop
  endfacet
  facet normal -0.454103 0.890949 0
    outer loop
      vertex 37.809 41.0489 11.5
      vertex 38.0878 41.191 -9.5
      vertex 37.809 41.0489 -9.5
    endloop
  endfacet
  facet normal -0.707107 -0.707107 0
    outer loop
      vertex 38.309 42.5878 -9.5
      vertex 38.0878 42.809 11.5
      vertex 38.0878 42.809 -9.5
    endloop
  endfacet
  facet normal -0.707107 -0.707107 0
    outer loop
      vertex 38.0878 42.809 11.5
      vertex 38.309 42.5878 -9.5
      vertex 38.309 42.5878 11.5
    endloop
  endfacet
  facet normal 0.987708 -0.156307 0
    outer loop
      vertex 36.5 42 11.5
      vertex 36.5489 42.309 -9.5
      vertex 36.5489 42.309 11.5
    endloop
  endfacet
  facet normal 0.987708 -0.156307 0
    outer loop
      vertex 36.5489 42.309 -9.5
      vertex 36.5 42 11.5
      vertex 36.5 42 -9.5
    endloop
  endfacet
  facet normal 0.707107 -0.707107 0
    outer loop
      vertex 36.691 42.5878 11.5
      vertex 36.9122 42.809 -9.5
      vertex 36.9122 42.809 11.5
    endloop
  endfacet
  facet normal 0.707107 -0.707107 0
    outer loop
      vertex 36.9122 42.809 -9.5
      vertex 36.691 42.5878 11.5
      vertex 36.691 42.5878 -9.5
    endloop
  endfacet
  facet normal 0.890949 -0.454103 0
    outer loop
      vertex 36.5489 42.309 11.5
      vertex 36.691 42.5878 -9.5
      vertex 36.691 42.5878 11.5
    endloop
  endfacet
  facet normal 0.890949 -0.454103 0
    outer loop
      vertex 36.691 42.5878 -9.5
      vertex 36.5489 42.309 11.5
      vertex 36.5489 42.309 -9.5
    endloop
  endfacet
  facet normal -0.156307 -0.987708 0
    outer loop
      vertex 37.5 43 -9.5
      vertex 37.809 42.9511 11.5
      vertex 37.5 43 11.5
    endloop
  endfacet
  facet normal -0.156307 -0.987708 -0
    outer loop
      vertex 37.809 42.9511 11.5
      vertex 37.5 43 -9.5
      vertex 37.809 42.9511 -9.5
    endloop
  endfacet
  facet normal 0.454103 -0.890949 0
    outer loop
      vertex 36.9122 42.809 -9.5
      vertex 37.191 42.9511 11.5
      vertex 36.9122 42.809 11.5
    endloop
  endfacet
  facet normal 0.454103 -0.890949 0
    outer loop
      vertex 37.191 42.9511 11.5
      vertex 36.9122 42.809 -9.5
      vertex 37.191 42.9511 -9.5
    endloop
  endfacet
  facet normal -0.454103 -0.890949 0
    outer loop
      vertex 37.809 42.9511 -9.5
      vertex 38.0878 42.809 11.5
      vertex 37.809 42.9511 11.5
    endloop
  endfacet
  facet normal -0.454103 -0.890949 -0
    outer loop
      vertex 38.0878 42.809 11.5
      vertex 37.809 42.9511 -9.5
      vertex 38.0878 42.809 -9.5
    endloop
  endfacet
  facet normal 0.156307 0.987708 -0
    outer loop
      vertex 37.5 41 -9.5
      vertex 37.191 41.0489 11.5
      vertex 37.5 41 11.5
    endloop
  endfacet
  facet normal 0.156307 0.987708 0
    outer loop
      vertex 37.191 41.0489 11.5
      vertex 37.5 41 -9.5
      vertex 37.191 41.0489 -9.5
    endloop
  endfacet
  facet normal 0.890949 0.454103 0
    outer loop
      vertex 36.691 41.4122 11.5
      vertex 36.5489 41.691 -9.5
      vertex 36.5489 41.691 11.5
    endloop
  endfacet
  facet normal 0.890949 0.454103 0
    outer loop
      vertex 36.5489 41.691 -9.5
      vertex 36.691 41.4122 11.5
      vertex 36.691 41.4122 -9.5
    endloop
  endfacet
  facet normal 0.707107 0.707107 0
    outer loop
      vertex 36.9122 41.191 11.5
      vertex 36.691 41.4122 -9.5
      vertex 36.691 41.4122 11.5
    endloop
  endfacet
  facet normal 0.707107 0.707107 0
    outer loop
      vertex 36.691 41.4122 -9.5
      vertex 36.9122 41.191 11.5
      vertex 36.9122 41.191 -9.5
    endloop
  endfacet
  facet normal 0.454103 0.890949 -0
    outer loop
      vertex 37.191 41.0489 -9.5
      vertex 36.9122 41.191 11.5
      vertex 37.191 41.0489 11.5
    endloop
  endfacet
  facet normal 0.454103 0.890949 0
    outer loop
      vertex 36.9122 41.191 11.5
      vertex 37.191 41.0489 -9.5
      vertex 36.9122 41.191 -9.5
    endloop
  endfacet
  facet normal -0.707107 0.707107 0
    outer loop
      vertex 38.0878 41.191 -9.5
      vertex 38.309 41.4122 11.5
      vertex 38.309 41.4122 -9.5
    endloop
  endfacet
  facet normal -0.707107 0.707107 0
    outer loop
      vertex 38.309 41.4122 11.5
      vertex 38.0878 41.191 -9.5
      vertex 38.0878 41.191 11.5
    endloop
  endfacet
  facet normal -0.890949 0.454103 0
    outer loop
      vertex 38.309 41.4122 -9.5
      vertex 38.4511 41.691 11.5
      vertex 38.4511 41.691 -9.5
    endloop
  endfacet
  facet normal -0.890949 0.454103 0
    outer loop
      vertex 38.4511 41.691 11.5
      vertex 38.309 41.4122 -9.5
      vertex 38.309 41.4122 11.5
    endloop
  endfacet
  facet normal 0.156395 0.987695 -0
    outer loop
      vertex 38.4271 -39.1468 -9.5
      vertex 37.5 -39 11.5
      vertex 38.4271 -39.1468 11.5
    endloop
  endfacet
  facet normal 0.156395 0.987695 0
    outer loop
      vertex 37.5 -39 11.5
      vertex 38.4271 -39.1468 -9.5
      vertex 37.5 -39 -9.5
    endloop
  endfacet
  facet normal -0.156395 0.987695 0
    outer loop
      vertex 37.5 -39 -9.5
      vertex 36.5729 -39.1468 11.5
      vertex 37.5 -39 11.5
    endloop
  endfacet
  facet normal -0.156395 0.987695 0
    outer loop
      vertex 36.5729 -39.1468 11.5
      vertex 37.5 -39 -9.5
      vertex 36.5729 -39.1468 -9.5
    endloop
  endfacet
  facet normal -0.453977 0.891013 0
    outer loop
      vertex 36.5729 -39.1468 -9.5
      vertex 35.7366 -39.5729 11.5
      vertex 36.5729 -39.1468 11.5
    endloop
  endfacet
  facet normal -0.453977 0.891013 0
    outer loop
      vertex 35.7366 -39.5729 11.5
      vertex 36.5729 -39.1468 -9.5
      vertex 35.7366 -39.5729 -9.5
    endloop
  endfacet
  facet normal -0.987695 -0.156395 0
    outer loop
      vertex 34.6468 -42.9271 -9.5
      vertex 34.5 -42 11.5
      vertex 34.5 -42 -9.5
    endloop
  endfacet
  facet normal -0.987695 -0.156395 0
    outer loop
      vertex 34.5 -42 11.5
      vertex 34.6468 -42.9271 -9.5
      vertex 34.6468 -42.9271 11.5
    endloop
  endfacet
  facet normal -0.987695 0.156395 0
    outer loop
      vertex 34.5 -42 -9.5
      vertex 34.6468 -41.0729 11.5
      vertex 34.6468 -41.0729 -9.5
    endloop
  endfacet
  facet normal -0.987695 0.156395 0
    outer loop
      vertex 34.6468 -41.0729 11.5
      vertex 34.5 -42 -9.5
      vertex 34.5 -42 11.5
    endloop
  endfacet
  facet normal -0.707107 0.707107 0
    outer loop
      vertex 35.0729 -40.2366 -9.5
      vertex 35.7366 -39.5729 11.5
      vertex 35.7366 -39.5729 -9.5
    endloop
  endfacet
  facet normal -0.707107 0.707107 0
    outer loop
      vertex 35.7366 -39.5729 11.5
      vertex 35.0729 -40.2366 -9.5
      vertex 35.0729 -40.2366 11.5
    endloop
  endfacet
  facet normal 0.45453 0.890732 -0
    outer loop
      vertex 38.5 -39.184 -9.5
      vertex 38.4271 -39.1468 11.5
      vertex 38.5 -39.184 11.5
    endloop
  endfacet
  facet normal 0.45453 0.890732 0
    outer loop
      vertex 38.4271 -39.1468 11.5
      vertex 38.5 -39.184 -9.5
      vertex 38.4271 -39.1468 -9.5
    endloop
  endfacet
  facet normal -0.891013 0.453977 0
    outer loop
      vertex 34.6468 -41.0729 -9.5
      vertex 35.0729 -40.2366 11.5
      vertex 35.0729 -40.2366 -9.5
    endloop
  endfacet
  facet normal -0.891013 0.453977 0
    outer loop
      vertex 35.0729 -40.2366 11.5
      vertex 34.6468 -41.0729 -9.5
      vertex 34.6468 -41.0729 11.5
    endloop
  endfacet
  facet normal -0.890732 -0.45453 0
    outer loop
      vertex 34.684 -43 -9.5
      vertex 34.6468 -42.9271 11.5
      vertex 34.6468 -42.9271 -9.5
    endloop
  endfacet
  facet normal -0.890732 -0.45453 0
    outer loop
      vertex 34.6468 -42.9271 11.5
      vertex 34.684 -43 -9.5
      vertex 34.684 -43 11.5
    endloop
  endfacet
  facet normal 0.987708 -0.156307 0
    outer loop
      vertex 36.5 -42 11.5
      vertex 36.5489 -41.691 -9.5
      vertex 36.5489 -41.691 11.5
    endloop
  endfacet
  facet normal 0.987708 -0.156307 0
    outer loop
      vertex 36.5489 -41.691 -9.5
      vertex 36.5 -42 11.5
      vertex 36.5 -42 -9.5
    endloop
  endfacet
  facet normal -0.890949 0.454103 0
    outer loop
      vertex 38.309 -42.5878 -9.5
      vertex 38.4511 -42.309 11.5
      vertex 38.4511 -42.309 -9.5
    endloop
  endfacet
  facet normal -0.890949 0.454103 0
    outer loop
      vertex 38.4511 -42.309 11.5
      vertex 38.309 -42.5878 -9.5
      vertex 38.309 -42.5878 11.5
    endloop
  endfacet
  facet normal -0.156307 -0.987708 0
    outer loop
      vertex 37.5 -41 -9.5
      vertex 37.809 -41.0489 11.5
      vertex 37.5 -41 11.5
    endloop
  endfacet
  facet normal -0.156307 -0.987708 -0
    outer loop
      vertex 37.809 -41.0489 11.5
      vertex 37.5 -41 -9.5
      vertex 37.809 -41.0489 -9.5
    endloop
  endfacet
  facet normal 0.156307 0.987708 -0
    outer loop
      vertex 37.5 -43 -9.5
      vertex 37.191 -42.9511 11.5
      vertex 37.5 -43 11.5
    endloop
  endfacet
  facet normal 0.156307 0.987708 0
    outer loop
      vertex 37.191 -42.9511 11.5
      vertex 37.5 -43 -9.5
      vertex 37.191 -42.9511 -9.5
    endloop
  endfacet
  facet normal -0.987708 -0.156307 0
    outer loop
      vertex 38.5 -42 -9.5
      vertex 38.4511 -41.691 11.5
      vertex 38.4511 -41.691 -9.5
    endloop
  endfacet
  facet normal -0.987708 -0.156307 0
    outer loop
      vertex 38.4511 -41.691 11.5
      vertex 38.5 -42 -9.5
      vertex 38.5 -42 11.5
    endloop
  endfacet
  facet normal -0.987708 0.156307 0
    outer loop
      vertex 38.4511 -42.309 -9.5
      vertex 38.5 -42 11.5
      vertex 38.5 -42 -9.5
    endloop
  endfacet
  facet normal -0.987708 0.156307 0
    outer loop
      vertex 38.5 -42 11.5
      vertex 38.4511 -42.309 -9.5
      vertex 38.4511 -42.309 11.5
    endloop
  endfacet
  facet normal -0.454103 -0.890949 0
    outer loop
      vertex 37.809 -41.0489 -9.5
      vertex 38.0878 -41.191 11.5
      vertex 37.809 -41.0489 11.5
    endloop
  endfacet
  facet normal -0.454103 -0.890949 -0
    outer loop
      vertex 38.0878 -41.191 11.5
      vertex 37.809 -41.0489 -9.5
      vertex 38.0878 -41.191 -9.5
    endloop
  endfacet
  facet normal -0.707107 0.707107 0
    outer loop
      vertex 38.0878 -42.809 -9.5
      vertex 38.309 -42.5878 11.5
      vertex 38.309 -42.5878 -9.5
    endloop
  endfacet
  facet normal -0.707107 0.707107 0
    outer loop
      vertex 38.309 -42.5878 11.5
      vertex 38.0878 -42.809 -9.5
      vertex 38.0878 -42.809 11.5
    endloop
  endfacet
  facet normal 0.987708 0.156307 0
    outer loop
      vertex 36.5489 -42.309 11.5
      vertex 36.5 -42 -9.5
      vertex 36.5 -42 11.5
    endloop
  endfacet
  facet normal 0.987708 0.156307 0
    outer loop
      vertex 36.5 -42 -9.5
      vertex 36.5489 -42.309 11.5
      vertex 36.5489 -42.309 -9.5
    endloop
  endfacet
  facet normal 0.707107 0.707107 0
    outer loop
      vertex 36.9122 -42.809 11.5
      vertex 36.691 -42.5878 -9.5
      vertex 36.691 -42.5878 11.5
    endloop
  endfacet
  facet normal 0.707107 0.707107 0
    outer loop
      vertex 36.691 -42.5878 -9.5
      vertex 36.9122 -42.809 11.5
      vertex 36.9122 -42.809 -9.5
    endloop
  endfacet
  facet normal 0.890949 0.454103 0
    outer loop
      vertex 36.691 -42.5878 11.5
      vertex 36.5489 -42.309 -9.5
      vertex 36.5489 -42.309 11.5
    endloop
  endfacet
  facet normal 0.890949 0.454103 0
    outer loop
      vertex 36.5489 -42.309 -9.5
      vertex 36.691 -42.5878 11.5
      vertex 36.691 -42.5878 -9.5
    endloop
  endfacet
  facet normal -0.156307 0.987708 0
    outer loop
      vertex 37.809 -42.9511 -9.5
      vertex 37.5 -43 11.5
      vertex 37.809 -42.9511 11.5
    endloop
  endfacet
  facet normal -0.156307 0.987708 0
    outer loop
      vertex 37.5 -43 11.5
      vertex 37.809 -42.9511 -9.5
      vertex 37.5 -43 -9.5
    endloop
  endfacet
  facet normal 0.454103 0.890949 -0
    outer loop
      vertex 37.191 -42.9511 -9.5
      vertex 36.9122 -42.809 11.5
      vertex 37.191 -42.9511 11.5
    endloop
  endfacet
  facet normal 0.454103 0.890949 0
    outer loop
      vertex 36.9122 -42.809 11.5
      vertex 37.191 -42.9511 -9.5
      vertex 36.9122 -42.809 -9.5
    endloop
  endfacet
  facet normal -0.454103 0.890949 0
    outer loop
      vertex 38.0878 -42.809 -9.5
      vertex 37.809 -42.9511 11.5
      vertex 38.0878 -42.809 11.5
    endloop
  endfacet
  facet normal -0.454103 0.890949 0
    outer loop
      vertex 37.809 -42.9511 11.5
      vertex 38.0878 -42.809 -9.5
      vertex 37.809 -42.9511 -9.5
    endloop
  endfacet
  facet normal 0.156307 -0.987708 0
    outer loop
      vertex 37.191 -41.0489 -9.5
      vertex 37.5 -41 11.5
      vertex 37.191 -41.0489 11.5
    endloop
  endfacet
  facet normal 0.156307 -0.987708 0
    outer loop
      vertex 37.5 -41 11.5
      vertex 37.191 -41.0489 -9.5
      vertex 37.5 -41 -9.5
    endloop
  endfacet
  facet normal 0.890949 -0.454103 0
    outer loop
      vertex 36.5489 -41.691 11.5
      vertex 36.691 -41.4122 -9.5
      vertex 36.691 -41.4122 11.5
    endloop
  endfacet
  facet normal 0.890949 -0.454103 0
    outer loop
      vertex 36.691 -41.4122 -9.5
      vertex 36.5489 -41.691 11.5
      vertex 36.5489 -41.691 -9.5
    endloop
  endfacet
  facet normal 0.707107 -0.707107 0
    outer loop
      vertex 36.691 -41.4122 11.5
      vertex 36.9122 -41.191 -9.5
      vertex 36.9122 -41.191 11.5
    endloop
  endfacet
  facet normal 0.707107 -0.707107 0
    outer loop
      vertex 36.9122 -41.191 -9.5
      vertex 36.691 -41.4122 11.5
      vertex 36.691 -41.4122 -9.5
    endloop
  endfacet
  facet normal 0.454103 -0.890949 0
    outer loop
      vertex 36.9122 -41.191 -9.5
      vertex 37.191 -41.0489 11.5
      vertex 36.9122 -41.191 11.5
    endloop
  endfacet
  facet normal 0.454103 -0.890949 0
    outer loop
      vertex 37.191 -41.0489 11.5
      vertex 36.9122 -41.191 -9.5
      vertex 37.191 -41.0489 -9.5
    endloop
  endfacet
  facet normal -0.707107 -0.707107 0
    outer loop
      vertex 38.309 -41.4122 -9.5
      vertex 38.0878 -41.191 11.5
      vertex 38.0878 -41.191 -9.5
    endloop
  endfacet
  facet normal -0.707107 -0.707107 0
    outer loop
      vertex 38.0878 -41.191 11.5
      vertex 38.309 -41.4122 -9.5
      vertex 38.309 -41.4122 11.5
    endloop
  endfacet
  facet normal -0.890949 -0.454103 0
    outer loop
      vertex 38.4511 -41.691 -9.5
      vertex 38.309 -41.4122 11.5
      vertex 38.309 -41.4122 -9.5
    endloop
  endfacet
  facet normal -0.890949 -0.454103 0
    outer loop
      vertex 38.309 -41.4122 11.5
      vertex 38.4511 -41.691 -9.5
      vertex 38.4511 -41.691 11.5
    endloop
  endfacet
  facet normal -0.156395 -0.987695 0
    outer loop
      vertex -38.4271 39.1468 -9.5
      vertex -37.5 39 11.5
      vertex -38.4271 39.1468 11.5
    endloop
  endfacet
  facet normal -0.156395 -0.987695 -0
    outer loop
      vertex -37.5 39 11.5
      vertex -38.4271 39.1468 -9.5
      vertex -37.5 39 -9.5
    endloop
  endfacet
  facet normal 0.156395 -0.987695 0
    outer loop
      vertex -37.5 39 -9.5
      vertex -36.5729 39.1468 11.5
      vertex -37.5 39 11.5
    endloop
  endfacet
  facet normal 0.156395 -0.987695 0
    outer loop
      vertex -36.5729 39.1468 11.5
      vertex -37.5 39 -9.5
      vertex -36.5729 39.1468 -9.5
    endloop
  endfacet
  facet normal 0.453977 -0.891013 0
    outer loop
      vertex -36.5729 39.1468 -9.5
      vertex -35.7366 39.5729 11.5
      vertex -36.5729 39.1468 11.5
    endloop
  endfacet
  facet normal 0.453977 -0.891013 0
    outer loop
      vertex -35.7366 39.5729 11.5
      vertex -36.5729 39.1468 -9.5
      vertex -35.7366 39.5729 -9.5
    endloop
  endfacet
  facet normal 0.987695 0.156395 0
    outer loop
      vertex -34.5 42 11.5
      vertex -34.6468 42.9271 -9.5
      vertex -34.6468 42.9271 11.5
    endloop
  endfacet
  facet normal 0.987695 0.156395 0
    outer loop
      vertex -34.6468 42.9271 -9.5
      vertex -34.5 42 11.5
      vertex -34.5 42 -9.5
    endloop
  endfacet
  facet normal 0.987695 -0.156395 0
    outer loop
      vertex -34.6468 41.0729 11.5
      vertex -34.5 42 -9.5
      vertex -34.5 42 11.5
    endloop
  endfacet
  facet normal 0.987695 -0.156395 0
    outer loop
      vertex -34.5 42 -9.5
      vertex -34.6468 41.0729 11.5
      vertex -34.6468 41.0729 -9.5
    endloop
  endfacet
  facet normal 0.707107 -0.707107 0
    outer loop
      vertex -35.7366 39.5729 11.5
      vertex -35.0729 40.2366 -9.5
      vertex -35.0729 40.2366 11.5
    endloop
  endfacet
  facet normal 0.707107 -0.707107 0
    outer loop
      vertex -35.0729 40.2366 -9.5
      vertex -35.7366 39.5729 11.5
      vertex -35.7366 39.5729 -9.5
    endloop
  endfacet
  facet normal -0.45453 -0.890732 0
    outer loop
      vertex -38.5 39.184 -9.5
      vertex -38.4271 39.1468 11.5
      vertex -38.5 39.184 11.5
    endloop
  endfacet
  facet normal -0.45453 -0.890732 -0
    outer loop
      vertex -38.4271 39.1468 11.5
      vertex -38.5 39.184 -9.5
      vertex -38.4271 39.1468 -9.5
    endloop
  endfacet
  facet normal 0.891013 -0.453977 0
    outer loop
      vertex -35.0729 40.2366 11.5
      vertex -34.6468 41.0729 -9.5
      vertex -34.6468 41.0729 11.5
    endloop
  endfacet
  facet normal 0.891013 -0.453977 0
    outer loop
      vertex -34.6468 41.0729 -9.5
      vertex -35.0729 40.2366 11.5
      vertex -35.0729 40.2366 -9.5
    endloop
  endfacet
  facet normal 0.890732 0.45453 0
    outer loop
      vertex -34.6468 42.9271 11.5
      vertex -34.684 43 -9.5
      vertex -34.684 43 11.5
    endloop
  endfacet
  facet normal 0.890732 0.45453 0
    outer loop
      vertex -34.684 43 -9.5
      vertex -34.6468 42.9271 11.5
      vertex -34.6468 42.9271 -9.5
    endloop
  endfacet
  facet normal -0.987708 0.156307 0
    outer loop
      vertex -36.5489 41.691 -9.5
      vertex -36.5 42 11.5
      vertex -36.5 42 -9.5
    endloop
  endfacet
  facet normal -0.987708 0.156307 0
    outer loop
      vertex -36.5 42 11.5
      vertex -36.5489 41.691 -9.5
      vertex -36.5489 41.691 11.5
    endloop
  endfacet
  facet normal 0.890949 -0.454103 0
    outer loop
      vertex -38.4511 42.309 11.5
      vertex -38.309 42.5878 -9.5
      vertex -38.309 42.5878 11.5
    endloop
  endfacet
  facet normal 0.890949 -0.454103 0
    outer loop
      vertex -38.309 42.5878 -9.5
      vertex -38.4511 42.309 11.5
      vertex -38.4511 42.309 -9.5
    endloop
  endfacet
  facet normal 0.156307 0.987708 -0
    outer loop
      vertex -37.5 41 -9.5
      vertex -37.809 41.0489 11.5
      vertex -37.5 41 11.5
    endloop
  endfacet
  facet normal 0.156307 0.987708 0
    outer loop
      vertex -37.809 41.0489 11.5
      vertex -37.5 41 -9.5
      vertex -37.809 41.0489 -9.5
    endloop
  endfacet
  facet normal -0.156307 -0.987708 0
    outer loop
      vertex -37.5 43 -9.5
      vertex -37.191 42.9511 11.5
      vertex -37.5 43 11.5
    endloop
  endfacet
  facet normal -0.156307 -0.987708 -0
    outer loop
      vertex -37.191 42.9511 11.5
      vertex -37.5 43 -9.5
      vertex -37.191 42.9511 -9.5
    endloop
  endfacet
  facet normal 0.987708 0.156307 0
    outer loop
      vertex -38.4511 41.691 11.5
      vertex -38.5 42 -9.5
      vertex -38.5 42 11.5
    endloop
  endfacet
  facet normal 0.987708 0.156307 0
    outer loop
      vertex -38.5 42 -9.5
      vertex -38.4511 41.691 11.5
      vertex -38.4511 41.691 -9.5
    endloop
  endfacet
  facet normal 0.987708 -0.156307 0
    outer loop
      vertex -38.5 42 11.5
      vertex -38.4511 42.309 -9.5
      vertex -38.4511 42.309 11.5
    endloop
  endfacet
  facet normal 0.987708 -0.156307 0
    outer loop
      vertex -38.4511 42.309 -9.5
      vertex -38.5 42 11.5
      vertex -38.5 42 -9.5
    endloop
  endfacet
  facet normal 0.454103 0.890949 -0
    outer loop
      vertex -37.809 41.0489 -9.5
      vertex -38.0878 41.191 11.5
      vertex -37.809 41.0489 11.5
    endloop
  endfacet
  facet normal 0.454103 0.890949 0
    outer loop
      vertex -38.0878 41.191 11.5
      vertex -37.809 41.0489 -9.5
      vertex -38.0878 41.191 -9.5
    endloop
  endfacet
  facet normal 0.707107 -0.707107 0
    outer loop
      vertex -38.309 42.5878 11.5
      vertex -38.0878 42.809 -9.5
      vertex -38.0878 42.809 11.5
    endloop
  endfacet
  facet normal 0.707107 -0.707107 0
    outer loop
      vertex -38.0878 42.809 -9.5
      vertex -38.309 42.5878 11.5
      vertex -38.309 42.5878 -9.5
    endloop
  endfacet
  facet normal -0.987708 -0.156307 0
    outer loop
      vertex -36.5 42 -9.5
      vertex -36.5489 42.309 11.5
      vertex -36.5489 42.309 -9.5
    endloop
  endfacet
  facet normal -0.987708 -0.156307 0
    outer loop
      vertex -36.5489 42.309 11.5
      vertex -36.5 42 -9.5
      vertex -36.5 42 11.5
    endloop
  endfacet
  facet normal -0.707107 -0.707107 0
    outer loop
      vertex -36.691 42.5878 -9.5
      vertex -36.9122 42.809 11.5
      vertex -36.9122 42.809 -9.5
    endloop
  endfacet
  facet normal -0.707107 -0.707107 0
    outer loop
      vertex -36.9122 42.809 11.5
      vertex -36.691 42.5878 -9.5
      vertex -36.691 42.5878 11.5
    endloop
  endfacet
  facet normal -0.890949 -0.454103 0
    outer loop
      vertex -36.5489 42.309 -9.5
      vertex -36.691 42.5878 11.5
      vertex -36.691 42.5878 -9.5
    endloop
  endfacet
  facet normal -0.890949 -0.454103 0
    outer loop
      vertex -36.691 42.5878 11.5
      vertex -36.5489 42.309 -9.5
      vertex -36.5489 42.309 11.5
    endloop
  endfacet
  facet normal 0.156307 -0.987708 0
    outer loop
      vertex -37.809 42.9511 -9.5
      vertex -37.5 43 11.5
      vertex -37.809 42.9511 11.5
    endloop
  endfacet
  facet normal 0.156307 -0.987708 0
    outer loop
      vertex -37.5 43 11.5
      vertex -37.809 42.9511 -9.5
      vertex -37.5 43 -9.5
    endloop
  endfacet
  facet normal -0.454103 -0.890949 0
    outer loop
      vertex -37.191 42.9511 -9.5
      vertex -36.9122 42.809 11.5
      vertex -37.191 42.9511 11.5
    endloop
  endfacet
  facet normal -0.454103 -0.890949 -0
    outer loop
      vertex -36.9122 42.809 11.5
      vertex -37.191 42.9511 -9.5
      vertex -36.9122 42.809 -9.5
    endloop
  endfacet
  facet normal 0.454103 -0.890949 0
    outer loop
      vertex -38.0878 42.809 -9.5
      vertex -37.809 42.9511 11.5
      vertex -38.0878 42.809 11.5
    endloop
  endfacet
  facet normal 0.454103 -0.890949 0
    outer loop
      vertex -37.809 42.9511 11.5
      vertex -38.0878 42.809 -9.5
      vertex -37.809 42.9511 -9.5
    endloop
  endfacet
  facet normal -0.156307 0.987708 0
    outer loop
      vertex -37.191 41.0489 -9.5
      vertex -37.5 41 11.5
      vertex -37.191 41.0489 11.5
    endloop
  endfacet
  facet normal -0.156307 0.987708 0
    outer loop
      vertex -37.5 41 11.5
      vertex -37.191 41.0489 -9.5
      vertex -37.5 41 -9.5
    endloop
  endfacet
  facet normal -0.890949 0.454103 0
    outer loop
      vertex -36.691 41.4122 -9.5
      vertex -36.5489 41.691 11.5
      vertex -36.5489 41.691 -9.5
    endloop
  endfacet
  facet normal -0.890949 0.454103 0
    outer loop
      vertex -36.5489 41.691 11.5
      vertex -36.691 41.4122 -9.5
      vertex -36.691 41.4122 11.5
    endloop
  endfacet
  facet normal -0.707107 0.707107 0
    outer loop
      vertex -36.9122 41.191 -9.5
      vertex -36.691 41.4122 11.5
      vertex -36.691 41.4122 -9.5
    endloop
  endfacet
  facet normal -0.707107 0.707107 0
    outer loop
      vertex -36.691 41.4122 11.5
      vertex -36.9122 41.191 -9.5
      vertex -36.9122 41.191 11.5
    endloop
  endfacet
  facet normal -0.454103 0.890949 0
    outer loop
      vertex -36.9122 41.191 -9.5
      vertex -37.191 41.0489 11.5
      vertex -36.9122 41.191 11.5
    endloop
  endfacet
  facet normal -0.454103 0.890949 0
    outer loop
      vertex -37.191 41.0489 11.5
      vertex -36.9122 41.191 -9.5
      vertex -37.191 41.0489 -9.5
    endloop
  endfacet
  facet normal 0.707107 0.707107 0
    outer loop
      vertex -38.0878 41.191 11.5
      vertex -38.309 41.4122 -9.5
      vertex -38.309 41.4122 11.5
    endloop
  endfacet
  facet normal 0.707107 0.707107 0
    outer loop
      vertex -38.309 41.4122 -9.5
      vertex -38.0878 41.191 11.5
      vertex -38.0878 41.191 -9.5
    endloop
  endfacet
  facet normal 0.890949 0.454103 0
    outer loop
      vertex -38.309 41.4122 11.5
      vertex -38.4511 41.691 -9.5
      vertex -38.4511 41.691 11.5
    endloop
  endfacet
  facet normal 0.890949 0.454103 0
    outer loop
      vertex -38.4511 41.691 -9.5
      vertex -38.309 41.4122 11.5
      vertex -38.309 41.4122 -9.5
    endloop
  endfacet
  facet normal -0.156395 0.987695 0
    outer loop
      vertex -37.5 -39 -9.5
      vertex -38.4271 -39.1468 11.5
      vertex -37.5 -39 11.5
    endloop
  endfacet
  facet normal -0.156395 0.987695 0
    outer loop
      vertex -38.4271 -39.1468 11.5
      vertex -37.5 -39 -9.5
      vertex -38.4271 -39.1468 -9.5
    endloop
  endfacet
  facet normal 0.156395 0.987695 -0
    outer loop
      vertex -36.5729 -39.1468 -9.5
      vertex -37.5 -39 11.5
      vertex -36.5729 -39.1468 11.5
    endloop
  endfacet
  facet normal 0.156395 0.987695 0
    outer loop
      vertex -37.5 -39 11.5
      vertex -36.5729 -39.1468 -9.5
      vertex -37.5 -39 -9.5
    endloop
  endfacet
  facet normal 0.453977 0.891013 -0
    outer loop
      vertex -35.7366 -39.5729 -9.5
      vertex -36.5729 -39.1468 11.5
      vertex -35.7366 -39.5729 11.5
    endloop
  endfacet
  facet normal 0.453977 0.891013 0
    outer loop
      vertex -36.5729 -39.1468 11.5
      vertex -35.7366 -39.5729 -9.5
      vertex -36.5729 -39.1468 -9.5
    endloop
  endfacet
  facet normal 0.987695 -0.156395 0
    outer loop
      vertex -34.6468 -42.9271 11.5
      vertex -34.5 -42 -9.5
      vertex -34.5 -42 11.5
    endloop
  endfacet
  facet normal 0.987695 -0.156395 0
    outer loop
      vertex -34.5 -42 -9.5
      vertex -34.6468 -42.9271 11.5
      vertex -34.6468 -42.9271 -9.5
    endloop
  endfacet
  facet normal 0.987695 0.156395 0
    outer loop
      vertex -34.5 -42 11.5
      vertex -34.6468 -41.0729 -9.5
      vertex -34.6468 -41.0729 11.5
    endloop
  endfacet
  facet normal 0.987695 0.156395 0
    outer loop
      vertex -34.6468 -41.0729 -9.5
      vertex -34.5 -42 11.5
      vertex -34.5 -42 -9.5
    endloop
  endfacet
  facet normal 0.707107 0.707107 0
    outer loop
      vertex -35.0729 -40.2366 11.5
      vertex -35.7366 -39.5729 -9.5
      vertex -35.7366 -39.5729 11.5
    endloop
  endfacet
  facet normal 0.707107 0.707107 0
    outer loop
      vertex -35.7366 -39.5729 -9.5
      vertex -35.0729 -40.2366 11.5
      vertex -35.0729 -40.2366 -9.5
    endloop
  endfacet
  facet normal -0.45453 0.890732 0
    outer loop
      vertex -38.4271 -39.1468 -9.5
      vertex -38.5 -39.184 11.5
      vertex -38.4271 -39.1468 11.5
    endloop
  endfacet
  facet normal -0.45453 0.890732 0
    outer loop
      vertex -38.5 -39.184 11.5
      vertex -38.4271 -39.1468 -9.5
      vertex -38.5 -39.184 -9.5
    endloop
  endfacet
  facet normal 0.891013 0.453977 0
    outer loop
      vertex -34.6468 -41.0729 11.5
      vertex -35.0729 -40.2366 -9.5
      vertex -35.0729 -40.2366 11.5
    endloop
  endfacet
  facet normal 0.891013 0.453977 0
    outer loop
      vertex -35.0729 -40.2366 -9.5
      vertex -34.6468 -41.0729 11.5
      vertex -34.6468 -41.0729 -9.5
    endloop
  endfacet
  facet normal 0.890732 -0.45453 0
    outer loop
      vertex -34.684 -43 11.5
      vertex -34.6468 -42.9271 -9.5
      vertex -34.6468 -42.9271 11.5
    endloop
  endfacet
  facet normal 0.890732 -0.45453 0
    outer loop
      vertex -34.6468 -42.9271 -9.5
      vertex -34.684 -43 11.5
      vertex -34.684 -43 -9.5
    endloop
  endfacet
  facet normal -0.987708 -0.156307 0
    outer loop
      vertex -36.5 -42 -9.5
      vertex -36.5489 -41.691 11.5
      vertex -36.5489 -41.691 -9.5
    endloop
  endfacet
  facet normal -0.987708 -0.156307 0
    outer loop
      vertex -36.5489 -41.691 11.5
      vertex -36.5 -42 -9.5
      vertex -36.5 -42 11.5
    endloop
  endfacet
  facet normal 0.890949 0.454103 0
    outer loop
      vertex -38.309 -42.5878 11.5
      vertex -38.4511 -42.309 -9.5
      vertex -38.4511 -42.309 11.5
    endloop
  endfacet
  facet normal 0.890949 0.454103 0
    outer loop
      vertex -38.4511 -42.309 -9.5
      vertex -38.309 -42.5878 11.5
      vertex -38.309 -42.5878 -9.5
    endloop
  endfacet
  facet normal 0.156307 -0.987708 0
    outer loop
      vertex -37.809 -41.0489 -9.5
      vertex -37.5 -41 11.5
      vertex -37.809 -41.0489 11.5
    endloop
  endfacet
  facet normal 0.156307 -0.987708 0
    outer loop
      vertex -37.5 -41 11.5
      vertex -37.809 -41.0489 -9.5
      vertex -37.5 -41 -9.5
    endloop
  endfacet
  facet normal -0.156307 0.987708 0
    outer loop
      vertex -37.191 -42.9511 -9.5
      vertex -37.5 -43 11.5
      vertex -37.191 -42.9511 11.5
    endloop
  endfacet
  facet normal -0.156307 0.987708 0
    outer loop
      vertex -37.5 -43 11.5
      vertex -37.191 -42.9511 -9.5
      vertex -37.5 -43 -9.5
    endloop
  endfacet
  facet normal 0.987708 -0.156307 0
    outer loop
      vertex -38.5 -42 11.5
      vertex -38.4511 -41.691 -9.5
      vertex -38.4511 -41.691 11.5
    endloop
  endfacet
  facet normal 0.987708 -0.156307 0
    outer loop
      vertex -38.4511 -41.691 -9.5
      vertex -38.5 -42 11.5
      vertex -38.5 -42 -9.5
    endloop
  endfacet
  facet normal 0.987708 0.156307 0
    outer loop
      vertex -38.4511 -42.309 11.5
      vertex -38.5 -42 -9.5
      vertex -38.5 -42 11.5
    endloop
  endfacet
  facet normal 0.987708 0.156307 0
    outer loop
      vertex -38.5 -42 -9.5
      vertex -38.4511 -42.309 11.5
      vertex -38.4511 -42.309 -9.5
    endloop
  endfacet
  facet normal 0.454103 -0.890949 0
    outer loop
      vertex -38.0878 -41.191 -9.5
      vertex -37.809 -41.0489 11.5
      vertex -38.0878 -41.191 11.5
    endloop
  endfacet
  facet normal 0.454103 -0.890949 0
    outer loop
      vertex -37.809 -41.0489 11.5
      vertex -38.0878 -41.191 -9.5
      vertex -37.809 -41.0489 -9.5
    endloop
  endfacet
  facet normal 0.707107 0.707107 0
    outer loop
      vertex -38.0878 -42.809 11.5
      vertex -38.309 -42.5878 -9.5
      vertex -38.309 -42.5878 11.5
    endloop
  endfacet
  facet normal 0.707107 0.707107 0
    outer loop
      vertex -38.309 -42.5878 -9.5
      vertex -38.0878 -42.809 11.5
      vertex -38.0878 -42.809 -9.5
    endloop
  endfacet
  facet normal -0.987708 0.156307 0
    outer loop
      vertex -36.5489 -42.309 -9.5
      vertex -36.5 -42 11.5
      vertex -36.5 -42 -9.5
    endloop
  endfacet
  facet normal -0.987708 0.156307 0
    outer loop
      vertex -36.5 -42 11.5
      vertex -36.5489 -42.309 -9.5
      vertex -36.5489 -42.309 11.5
    endloop
  endfacet
  facet normal -0.707107 0.707107 0
    outer loop
      vertex -36.9122 -42.809 -9.5
      vertex -36.691 -42.5878 11.5
      vertex -36.691 -42.5878 -9.5
    endloop
  endfacet
  facet normal -0.707107 0.707107 0
    outer loop
      vertex -36.691 -42.5878 11.5
      vertex -36.9122 -42.809 -9.5
      vertex -36.9122 -42.809 11.5
    endloop
  endfacet
  facet normal -0.890949 0.454103 0
    outer loop
      vertex -36.691 -42.5878 -9.5
      vertex -36.5489 -42.309 11.5
      vertex -36.5489 -42.309 -9.5
    endloop
  endfacet
  facet normal -0.890949 0.454103 0
    outer loop
      vertex -36.5489 -42.309 11.5
      vertex -36.691 -42.5878 -9.5
      vertex -36.691 -42.5878 11.5
    endloop
  endfacet
  facet normal 0.156307 0.987708 -0
    outer loop
      vertex -37.5 -43 -9.5
      vertex -37.809 -42.9511 11.5
      vertex -37.5 -43 11.5
    endloop
  endfacet
  facet normal 0.156307 0.987708 0
    outer loop
      vertex -37.809 -42.9511 11.5
      vertex -37.5 -43 -9.5
      vertex -37.809 -42.9511 -9.5
    endloop
  endfacet
  facet normal -0.454103 0.890949 0
    outer loop
      vertex -36.9122 -42.809 -9.5
      vertex -37.191 -42.9511 11.5
      vertex -36.9122 -42.809 11.5
    endloop
  endfacet
  facet normal -0.454103 0.890949 0
    outer loop
      vertex -37.191 -42.9511 11.5
      vertex -36.9122 -42.809 -9.5
      vertex -37.191 -42.9511 -9.5
    endloop
  endfacet
  facet normal 0.454103 0.890949 -0
    outer loop
      vertex -37.809 -42.9511 -9.5
      vertex -38.0878 -42.809 11.5
      vertex -37.809 -42.9511 11.5
    endloop
  endfacet
  facet normal 0.454103 0.890949 0
    outer loop
      vertex -38.0878 -42.809 11.5
      vertex -37.809 -42.9511 -9.5
      vertex -38.0878 -42.809 -9.5
    endloop
  endfacet
  facet normal -0.156307 -0.987708 0
    outer loop
      vertex -37.5 -41 -9.5
      vertex -37.191 -41.0489 11.5
      vertex -37.5 -41 11.5
    endloop
  endfacet
  facet normal -0.156307 -0.987708 -0
    outer loop
      vertex -37.191 -41.0489 11.5
      vertex -37.5 -41 -9.5
      vertex -37.191 -41.0489 -9.5
    endloop
  endfacet
  facet normal -0.890949 -0.454103 0
    outer loop
      vertex -36.5489 -41.691 -9.5
      vertex -36.691 -41.4122 11.5
      vertex -36.691 -41.4122 -9.5
    endloop
  endfacet
  facet normal -0.890949 -0.454103 0
    outer loop
      vertex -36.691 -41.4122 11.5
      vertex -36.5489 -41.691 -9.5
      vertex -36.5489 -41.691 11.5
    endloop
  endfacet
  facet normal -0.707107 -0.707107 0
    outer loop
      vertex -36.691 -41.4122 -9.5
      vertex -36.9122 -41.191 11.5
      vertex -36.9122 -41.191 -9.5
    endloop
  endfacet
  facet normal -0.707107 -0.707107 0
    outer loop
      vertex -36.9122 -41.191 11.5
      vertex -36.691 -41.4122 -9.5
      vertex -36.691 -41.4122 11.5
    endloop
  endfacet
  facet normal -0.454103 -0.890949 0
    outer loop
      vertex -37.191 -41.0489 -9.5
      vertex -36.9122 -41.191 11.5
      vertex -37.191 -41.0489 11.5
    endloop
  endfacet
  facet normal -0.454103 -0.890949 -0
    outer loop
      vertex -36.9122 -41.191 11.5
      vertex -37.191 -41.0489 -9.5
      vertex -36.9122 -41.191 -9.5
    endloop
  endfacet
  facet normal 0.707107 -0.707107 0
    outer loop
      vertex -38.309 -41.4122 11.5
      vertex -38.0878 -41.191 -9.5
      vertex -38.0878 -41.191 11.5
    endloop
  endfacet
  facet normal 0.707107 -0.707107 0
    outer loop
      vertex -38.0878 -41.191 -9.5
      vertex -38.309 -41.4122 11.5
      vertex -38.309 -41.4122 -9.5
    endloop
  endfacet
  facet normal 0.890949 -0.454103 0
    outer loop
      vertex -38.4511 -41.691 11.5
      vertex -38.309 -41.4122 -9.5
      vertex -38.309 -41.4122 11.5
    endloop
  endfacet
  facet normal 0.890949 -0.454103 0
    outer loop
      vertex -38.309 -41.4122 -9.5
      vertex -38.4511 -41.691 11.5
      vertex -38.4511 -41.691 -9.5
    endloop
  endfacet
endsolid OpenSCAD_Model
